<svg width="44" height="64" viewBox="0 0 44 64" fill="none" xmlns="http://www.w3.org/2000/svg">
<path d="M2.49985 20C2.49985 25.5067 4.49985 28.5 7.99985 28.5C12.6679 28.5 24.9998 13 30.4998 7C33.9998 4 23.4998 3.05176e-05 19.9998 1.99414C15.302 1.99414 2.49985 14.4815 2.49985 20Z" fill="#FAB608"/>
<path fill-rule="evenodd" clip-rule="evenodd" d="M20.5442 0.134169C18.034 0.617483 15.8662 1.7886 14.0535 3.64051C13.5435 4.1615 13.0653 4.58787 12.9911 4.58787C12.9169 4.58787 12.6921 4.41379 12.4918 4.20092C11.7264 3.38834 10.6369 3.11765 9.78095 3.52738C9.19548 3.80758 5.29228 7.81426 5.06114 8.37229C4.69366 9.25957 4.91413 10.0575 5.77104 10.9404L6.28852 11.4735L5.22069 12.5673C3.26902 14.566 2.23432 16.5286 1.763 19.1248C1.56586 20.2104 1.59477 22.4838 1.8192 23.5591C2.21819 25.4708 3.15761 27.4733 4.30571 28.8595L4.72245 29.3627L4.53895 29.9591C4.09033 31.4168 4.79167 33.0845 6.10416 33.6816C6.42834 33.829 6.6065 33.9921 6.6065 34.1414C6.6065 34.3559 6.47337 34.3726 4.77654 34.3734C2.69597 34.3741 2.18941 34.477 1.57119 35.0247C0.879284 35.6374 0.616142 36.2745 0.674328 37.1962C0.738098 38.206 1.1691 38.8668 2.05443 39.3118C2.67364 39.623 2.73654 39.6288 5.49674 39.6288H8.3083L8.77739 40.3484C9.90042 42.0713 12.1752 43.8571 14.272 44.6619C14.8825 44.8963 15.2776 45.1151 15.245 45.2009C15.0634 45.6782 12.4376 56.1749 12.4376 56.4234C12.4376 56.846 12.8702 57.2744 13.2971 57.2744C14.0586 57.2744 14.0757 57.2297 15.6348 51.1422L17.0933 45.4481L18.0842 45.492C18.6291 45.516 19.0895 45.5496 19.1074 45.5663C19.1252 45.5831 18.2196 49.1957 17.0949 53.5943C15.2753 60.7115 15.0149 61.623 14.7295 61.8735C14.3185 62.2343 13.9035 62.2309 13.4796 61.8631C13.0875 61.523 13.0667 61.2008 13.362 60.0511C13.5853 59.182 13.5223 58.7303 13.1401 58.4604C12.3959 57.9345 11.8231 58.4367 11.4767 59.9188C11.0958 61.5486 11.3217 62.4586 12.3212 63.3216C13.259 64.1314 14.6573 64.2271 15.6568 63.55C16.5194 62.9657 16.7332 62.5026 17.4714 59.6192C17.8457 58.1575 18.182 56.8625 18.219 56.7414C18.282 56.5344 18.6855 56.5233 25.0022 56.5537L31.7184 56.5861L31.8953 57.3172C32.0552 57.9782 32.0511 58.1187 31.8524 58.7808C31.2668 60.7314 32.1716 62.7719 34.0056 63.6371C35.4605 64.3234 37.3273 63.9757 38.4495 62.8092C39.1633 62.0672 39.5144 61.2628 39.5781 60.2236C39.6563 58.9473 39.3061 58.0689 38.3366 57.1104L37.6013 56.3835L36.1835 50.8531C35.4036 47.8116 34.7416 45.256 34.7122 45.1743C34.6805 45.0859 34.9205 44.9392 35.3034 44.8127C39.2358 43.5137 42.3321 39.8877 43.1497 35.6241C43.4039 34.2987 43.3913 31.6004 43.1284 31.0414C42.7951 30.3332 42.3014 30.0705 41.1621 29.9955L40.1661 29.93L40.104 28.6159C40.0302 27.0511 39.8243 26.5961 38.9858 26.1445C38.4983 25.8819 38.296 25.8497 37.3565 25.885C36.1007 25.9322 35.7618 26.1313 35.7618 26.822C35.7618 27.4593 36.0907 27.6661 37.2224 27.7399L38.181 27.8025L38.2176 28.7928C38.2438 29.5005 38.2083 29.8124 38.0936 29.8859C38.0052 29.9425 34.0457 29.9895 29.2945 29.9907C22.018 29.9923 20.6334 29.9647 20.5113 29.8163C20.4215 29.7072 20.3803 29.2911 20.403 28.7213L20.4397 27.8025L26.5122 27.7699C32.5464 27.7376 32.5865 27.7358 32.8706 27.4666C33.2197 27.1357 33.2399 26.6202 32.9193 26.2208L32.6822 25.9253L26.561 25.8897C19.8047 25.8506 19.7239 25.8586 19.0833 26.6265C18.6651 27.1278 18.5182 27.7333 18.5175 28.9601L18.5167 29.9925H10.5712L10.4266 29.6722C10.2858 29.3605 10.5838 29.0471 21.3413 18.19C27.5691 11.9045 32.4574 6.87429 32.5305 6.67593C32.9251 5.60393 32.4974 4.73454 30.869 3.29849C29.0167 1.66508 27.5918 0.873157 25.515 0.323265C24.2474 -0.012377 21.7906 -0.105861 20.5442 0.134169ZM25.1542 2.1539C26.9291 2.64072 28.6225 3.67368 30.0528 5.14202L30.8574 5.96786L19.9415 16.9847C9.96208 27.0567 8.99921 27.9941 8.7156 27.9125C8.40482 27.823 6.80909 27.8054 6.24274 27.8852C5.85764 27.9394 5.19364 27.1012 4.49218 25.675C2.95018 22.5402 3.17722 18.5838 5.06834 15.6336C5.64003 14.742 15.6652 4.54044 16.7178 3.77943C17.954 2.88551 19.49 2.22298 20.936 1.95993C21.817 1.79961 24.2745 1.91262 25.1542 2.1539ZM11.2211 5.54987C11.4125 5.73483 11.5691 5.94671 11.5691 6.02067C11.5691 6.09463 10.676 7.05475 9.5843 8.15428L7.59964 10.1534L6.672 9.21765L8.65382 7.21569C9.74385 6.11453 10.6891 5.2136 10.7545 5.2136C10.8197 5.2136 11.0298 5.3649 11.2211 5.54987ZM25.7745 16.6279C25.4423 16.8202 25.2492 17.0673 24.964 17.6656C24.4944 18.6508 24.73 20.05 25.526 21.0043C25.9194 21.4761 25.9175 21.8319 25.5166 22.6049C25.2293 23.1593 25.2135 23.2574 25.3619 23.5697C25.566 23.999 26.082 24.2039 26.5455 24.0395C27.0417 23.8635 27.6038 22.8721 27.671 22.0543C27.7375 21.2446 27.567 20.682 27.0055 19.8586C26.5167 19.1417 26.4601 18.5793 26.8291 18.1036C27.1844 17.6454 27.1503 17.0535 26.7503 16.7362C26.3833 16.4448 26.1379 16.4177 25.7745 16.6279ZM30.2816 16.6684C30.0918 16.7723 29.8074 17.1442 29.6162 17.5384C29.3302 18.1278 29.2892 18.3491 29.33 19.0779C29.3723 19.834 29.4362 20.0156 29.9023 20.7044C30.1909 21.1308 30.427 21.5941 30.427 21.7338C30.427 21.8734 30.2858 22.2603 30.1131 22.5933C29.861 23.0797 29.8232 23.2623 29.921 23.522C30.1705 24.1836 30.998 24.3118 31.4999 23.7665C32.5211 22.657 32.5358 21.0526 31.5364 19.784C31.1002 19.2303 31.0545 18.5743 31.4195 18.1036C31.7748 17.6454 31.7407 17.0535 31.3407 16.7362C30.9591 16.4333 30.7366 16.4191 30.2816 16.6684ZM34.8869 16.6605C34.3652 16.9468 33.8757 17.9999 33.8777 18.8319C33.8797 19.6764 33.9953 20.0119 34.5788 20.8676C35.1022 21.6351 35.1161 21.8313 34.6977 22.5515C34.4756 22.9338 34.4043 23.189 34.4642 23.3872C34.8396 24.6291 36.2069 24.208 36.7044 22.6973C37.0421 21.6714 36.7968 20.6009 35.9903 19.5811C35.6587 19.1618 35.6631 18.595 36.0016 18.1154C36.343 17.6317 36.326 17.1597 35.9535 16.784C35.6105 16.438 35.3479 16.4075 34.8869 16.6605ZM8.20483 29.8212C8.57727 30.0843 8.83508 30.7115 8.75158 31.1515C8.7156 31.3416 8.52107 31.6372 8.31921 31.8085C7.05189 32.8842 5.47651 31.0553 6.69161 29.9193C7.07621 29.5598 7.77109 29.5147 8.20483 29.8212ZM41.4669 33.2776C41.465 34.7363 41.2892 35.7759 40.8319 37.032L40.57 37.7516L9.39796 37.7507L9.18444 37.2192C8.90071 36.5128 8.6331 35.4399 8.52702 34.5836L8.44067 33.8867L8.85728 33.7077C9.3688 33.4881 10.1301 32.7284 10.3324 32.2355L10.4827 31.8697H41.4688L41.4669 33.2776ZM7.09097 36.7817C7.17447 37.0742 7.27074 37.4122 7.30511 37.5326C7.36292 37.7353 7.20387 37.7516 5.16685 37.7516C2.74001 37.7516 2.51235 37.6861 2.51235 36.9884C2.51235 36.3462 2.83728 36.2498 5.00159 36.2498H6.93936L7.09097 36.7817ZM39.0465 40.0595C38.3375 40.9974 36.6512 42.2346 35.3211 42.7929C33.4392 43.5829 33.5992 43.5709 24.9681 43.5709C17.1567 43.5709 17.0813 43.5685 16.0573 43.2861C15.4893 43.1294 14.5888 42.7802 14.0562 42.5101C12.9988 41.9738 11.4595 40.782 10.9124 40.0759L10.566 39.6288H39.3723L39.0465 40.0595ZM34.1905 50.6104C34.9235 53.484 35.5211 55.8697 35.5185 55.912C35.5159 55.9543 35.2614 56.0238 34.9532 56.0663C34.6449 56.109 34.2252 56.2313 34.0205 56.338C33.7269 56.4912 33.6367 56.4984 33.5935 56.3715C33.5633 56.283 32.9479 53.9017 32.2258 51.0797C31.5037 48.2576 30.8845 45.8532 30.8498 45.7364C30.7853 45.5195 30.8361 45.5094 32.4798 45.4087L32.8575 45.3855L34.1905 50.6104ZM29.4866 47.9197C29.8223 49.2446 30.1213 50.3992 30.1511 50.4852C30.194 50.6087 29.1089 50.6416 24.9914 50.6416H19.7776L20.3894 48.2326C20.7258 46.9077 21.0266 45.7532 21.0577 45.6671C21.1014 45.5464 22.0035 45.5107 24.9954 45.5107H28.8764L29.4866 47.9197ZM30.8023 53.0507C30.8776 53.3432 30.9911 53.7797 31.0545 54.0206C31.118 54.2615 31.1702 54.5008 31.1706 54.5525C31.171 54.6041 28.3735 54.6463 24.9536 54.6463H18.736L18.8139 54.3647C18.8568 54.2098 18.9817 53.7312 19.0915 53.301L19.2913 52.5188H30.6656L30.8023 53.0507ZM36.5874 58.1055C38.0855 58.8224 38.114 61.0781 36.6352 61.8669C35.1288 62.6704 33.4259 61.5359 33.5592 59.8176C33.6748 58.3301 35.2253 57.4535 36.5874 58.1055Z" fill="#2C1F00"/>
</svg>
