<svg width="58" height="64" viewBox="0 0 58 64" fill="none" xmlns="http://www.w3.org/2000/svg">
<path d="M26.1571 43.2423L33.0374 40.3549L36.0368 33.4856C37.6865 29.7075 39.0101 26.5903 38.9783 26.5585C38.9284 26.5086 28.1764 30.9689 25.8052 32.0231C25.2182 32.2841 24.9164 32.5002 24.8083 32.737C24.5941 33.206 19.074 45.8679 18.986 46.0918C18.939 46.2115 18.9762 46.2485 19.0959 46.2013C19.1954 46.162 22.3729 44.8305 26.1571 43.2423Z" fill="#FAB608"/>
<path d="M26.647 63.9319C18.9395 63.2593 11.9337 59.7275 7.05368 54.0545C2.58033 48.8542 0.247995 42.6061 0.242685 35.8086C0.233196 23.6643 7.93025 13.1279 19.785 9.05725L21.3099 8.53364L21.3836 7.39882C21.5325 5.10757 22.1426 3.65173 23.5433 2.24593C26.4005 -0.621769 31.1844 -0.762311 34.1639 1.93391C35.7094 3.33252 36.4216 4.83092 36.6503 7.16506L36.789 8.58162L38.3948 9.11134C45.3783 11.4152 51.6464 16.8594 54.8675 23.419C56.8478 27.4514 57.7624 31.3734 57.757 35.8086C57.7501 41.3552 56.28 46.3223 53.3002 50.8669C47.8419 59.1913 38.6446 64.124 28.817 63.9976C27.9031 63.9859 26.9266 63.9563 26.647 63.9319ZM33.6361 61.7437C39.307 60.7478 44.2204 58.2019 48.2499 54.1715C52.006 50.4145 54.4685 45.6486 55.506 40.128C55.7815 38.6622 55.889 34.2849 55.6893 32.6657C54.9588 26.7426 52.1539 21.244 47.665 16.9353C43.5985 13.032 38.1867 10.4339 32.5812 9.69396C30.7293 9.44949 27.3873 9.45147 25.4781 9.69816C22.3931 10.0968 19.6488 10.9321 16.8694 12.3187C14.1786 13.661 12.182 15.0981 9.9575 17.2936C7.69045 19.5312 6.18025 21.6043 4.85622 24.2963C2.95346 28.165 2.07214 32.2964 2.22418 36.6346C2.41421 42.0571 4.12648 47.0344 7.26276 51.2809C8.2641 52.6367 10.5313 54.9898 11.9065 56.1006C15.838 59.2762 20.8036 61.3555 25.9481 61.9805C27.5945 62.1805 31.9046 62.0477 33.6361 61.7437ZM25.9481 57.7271C18.5125 56.704 12.0654 52.1176 8.73895 45.4848C7.90174 43.8155 7.39806 42.4069 6.93384 40.4368C6.59775 39.0105 6.57667 38.7511 6.57313 35.9992C6.56979 33.4001 6.60254 32.9218 6.86891 31.6787C8.75938 22.8567 15.2621 16.2252 23.9249 14.2848C33.1863 12.2102 42.9246 16.0907 47.9638 23.8637C52.1424 30.3092 52.7095 38.46 49.4455 45.1615C45.6417 52.9717 37.5207 57.9774 28.769 57.9064C27.8815 57.8992 26.6121 57.8185 25.9481 57.7271ZM30.2051 53.4083H27.7907L27.7536 54.5419C27.7333 55.1654 27.7458 55.7515 27.7814 55.8444C27.8291 55.9686 28.168 56.0133 29.0619 56.0133H30.2775L30.2051 53.4083ZM25.821 53.9873C25.821 52.2973 25.8352 52.1988 26.1277 51.8588L26.4344 51.5022H31.5614L31.868 51.8588C32.1605 52.1988 32.1747 52.2973 32.1747 53.9873C32.1747 56.0727 31.9856 55.9355 34.104 55.3865C37.8904 54.4051 40.8181 52.7147 43.6836 49.8554C46.4264 47.1184 48.2412 43.9629 49.0767 40.4781C49.4976 38.7225 49.6276 38.8584 47.5271 38.8584C44.9956 38.8584 45.1362 39.0377 45.1362 35.8104C45.1362 32.5613 44.9837 32.7589 47.492 32.7589C49.6133 32.7589 49.4672 32.893 49.0832 31.2975C47.8838 26.3134 44.8151 21.9097 40.5616 19.0685C38.3283 17.5768 35.2449 16.3414 32.7148 15.9247L32.1747 15.8357V17.4411C32.1747 18.9761 32.1611 19.0601 31.8628 19.3584C31.5525 19.6687 31.5378 19.6703 29.0177 19.6703C25.7186 19.6703 25.8999 19.793 25.8427 17.5215C25.8134 16.3575 25.7562 15.8589 25.6521 15.8608C25.5703 15.8623 25.0075 15.9732 24.4015 16.1072C17.7669 17.5744 12.4069 22.1005 9.87338 28.3748C9.44838 29.4274 8.66609 32.1502 8.66609 32.5768C8.66609 32.7265 8.99417 32.7589 10.5087 32.7589C13.0242 32.7589 12.8595 32.547 12.8595 35.7847C12.8595 39.0595 13.0136 38.8584 10.5037 38.8584C8.38467 38.8584 8.51188 38.7501 8.86169 40.2562C10.5717 47.6184 16.3681 53.42 23.9785 55.3865C24.7473 55.5851 25.4763 55.7502 25.5987 55.7534C25.8001 55.7587 25.821 55.5923 25.821 53.9873ZM16.7309 48.9022C16.3507 48.7499 16.1208 48.4211 16.1228 48.0327C16.1238 47.8442 17.6131 44.2876 19.4325 40.1291C21.2519 35.9707 22.8664 32.2737 23.0203 31.9136C23.1742 31.5536 23.4241 31.1426 23.5757 31.0004C23.7274 30.8582 25.1666 30.1992 26.7741 29.536C28.3816 28.8727 32.1557 27.2968 35.1609 26.0338C38.255 24.7336 40.7957 23.7374 41.0184 23.7371C41.4992 23.7365 41.8768 24.1178 41.869 24.596C41.864 24.8985 34.9732 40.8648 34.5666 41.5157C34.4827 41.6502 34.1532 41.8775 33.8344 42.0209C32.7108 42.5263 17.4944 48.8698 17.2436 48.9374C17.1038 48.975 16.8731 48.9592 16.7309 48.9022ZM26.1571 43.2423L33.0374 40.3549L36.0368 33.4856C37.6865 29.7075 39.0101 26.5903 38.9783 26.5585C38.9284 26.5086 28.1764 30.9689 25.8052 32.0231C25.2182 32.2841 24.9164 32.5002 24.8083 32.737C24.5941 33.206 19.074 45.8679 18.986 46.0918C18.939 46.2115 18.9762 46.2485 19.0959 46.2013C19.1954 46.162 22.3729 44.8305 26.1571 43.2423ZM10.9534 34.665H8.41194V36.9523H10.9534V34.665ZM49.5838 34.665H47.0423V36.9523H49.5838V34.665ZM30.2051 15.6675H27.7907L27.7169 17.7642H30.2789L30.2051 15.6675ZM24.254 7.96646L25.0586 7.82634V7.35415C25.0586 5.3762 26.8588 3.6368 28.9226 3.62072C30.1244 3.61136 30.9667 3.9555 31.8127 4.80155C32.5788 5.56764 32.9372 6.38114 32.9372 7.35415V7.82634L33.7418 7.96646C34.1843 8.04352 34.5846 8.10658 34.6313 8.10658C34.7799 8.10658 34.7196 6.66945 34.5434 6.00986C34.2837 5.03732 33.864 4.31508 33.135 3.58612C31.4139 1.86505 28.7211 1.3861 26.5534 2.41552C24.6545 3.31734 23.4528 5.04899 23.3133 7.08484C23.2748 7.64679 23.2896 8.10658 23.3463 8.10658C23.403 8.10658 23.8114 8.04352 24.254 7.96646ZM30.9875 7.12473C30.7137 5.43796 28.3496 4.91806 27.3481 6.32442C27.1986 6.53448 27.0436 6.90704 27.0038 7.15232L26.9314 7.59828H31.0643L30.9875 7.12473Z" fill="black"/>
</svg>
