<svg width="64" height="52" viewBox="0 0 64 52" fill="none" xmlns="http://www.w3.org/2000/svg">
<path d="M3.83691 13.3833C3.83691 15.9054 6.22477 18.4696 10.4282 18.4696C14.6048 18.4696 18.0335 15.9054 18.0335 13.3833C18.0335 8.80058 13.5997 8.80058 9.41413 8.80058C5.21073 8.80058 3.83691 10.8558 3.83691 13.3833Z" fill="#FAB608"/>
<path d="M0.427234 51.4914C0.303461 51.4098 0.157923 51.2633 0.103816 51.1658C0.0246744 51.0231 0.00490648 47.7306 0.0027189 34.3274L0 17.6664L0.160252 17.4627C0.47841 17.0582 0.61883 17.0318 2.45181 17.0318C3.38244 17.0318 4.14386 17.0194 4.14386 17.0043C4.14386 16.9891 4.01986 16.7083 3.86831 16.3803C3.50562 15.5953 3.23104 14.4898 3.16294 13.5402L3.1079 12.7729L0.539689 12.6961L0.289029 12.4452C0.0628784 12.2189 0.0383687 12.1503 0.0383687 11.7435C0.0383687 11.4011 0.0753113 11.2511 0.191845 11.1204C0.475135 10.8027 0.767152 10.7393 1.94615 10.7393C2.88476 10.7393 3.06019 10.7208 3.09969 10.6179C3.1253 10.5511 3.14627 10.2095 3.14627 9.85864C3.14627 9.26486 3.16123 9.20474 3.36266 8.98911C3.48168 8.8617 3.72178 8.71902 3.89623 8.67205C4.12085 8.61156 6.21684 8.59282 11.0795 8.60782C17.8865 8.62881 17.9474 8.63036 18.1622 8.78792C18.5209 9.05114 18.6471 9.39408 18.6473 10.1062L18.6474 10.7393H19.8009C20.6014 10.7393 21.0311 10.7713 21.2049 10.8439C21.8748 11.1238 21.9559 12.1458 21.3411 12.5592C21.097 12.7233 21.0031 12.7345 19.8754 12.7345H18.6705L18.6211 13.4874C18.5498 14.5759 18.2576 15.6435 17.7509 16.6673L17.5705 17.0318H40.3834C62.3309 17.0318 63.2062 17.0371 63.4578 17.172C63.6016 17.2492 63.7823 17.4299 63.8595 17.5737C63.994 17.8246 63.9997 18.5011 63.9997 34.3184C63.9997 52.2338 64.0271 51.12 63.5766 51.4744L63.3651 51.6407L32.0087 51.6402C1.14287 51.6397 0.648753 51.6374 0.427234 51.4914ZM19.7985 29.3093L1.95682 29.3483L1.93709 39.4394C1.92624 44.9895 1.93379 49.5736 1.95387 49.6264C1.98278 49.7023 3.84181 49.7223 10.8944 49.7223H19.7985V29.3093ZM4.3292 47.925C4.199 47.8683 4.01771 47.7268 3.92632 47.6107L3.76017 47.3994V39.5161C3.76017 31.6379 3.76025 31.6326 3.92042 31.429C4.27493 30.9784 3.95608 30.9982 10.8571 30.9982C17.8383 30.9982 17.5777 30.9805 17.878 31.4732C18.0307 31.7235 18.0329 31.8389 18.0329 39.5161C18.0329 47.1933 18.0307 47.3087 17.878 47.5591C17.5776 48.0519 17.837 48.0344 10.8801 48.031C5.76902 48.0286 4.52082 48.0084 4.3292 47.925ZM16.0383 32.9934H5.67862V46.0389H16.0383V32.9934ZM40.9014 29.3099H21.7936V49.7223H40.9014V29.3099ZM36.7826 43.241C36.6486 43.1828 36.4759 43.0389 36.3989 42.9213C36.2689 42.723 36.2588 42.4766 36.2588 39.5161C36.2588 36.5542 36.2689 36.3093 36.3991 36.1107C36.6559 35.7186 37.2468 35.5764 37.7086 35.7955C38.2196 36.038 38.2156 36.0086 38.2156 39.5161C38.2156 42.3578 38.2024 42.6995 38.0847 42.8987C37.8426 43.3084 37.2785 43.4568 36.7826 43.241ZM62.0044 29.3099H42.8966V49.7223H62.0044V29.3099ZM46.158 43.2798C46.0736 43.2449 45.9182 43.1235 45.8127 43.01L45.6208 42.8036L45.6015 39.6059C45.5803 36.1054 45.5732 36.1662 46.0362 35.8542C46.511 35.5342 47.1898 35.709 47.4433 36.2164C47.5642 36.4585 47.5774 36.7839 47.5774 39.5161C47.5774 42.2483 47.5642 42.5738 47.4433 42.8159C47.2286 43.2456 46.6128 43.4679 46.158 43.2798ZM19.7985 19.027H1.91845V23.1581C1.91845 25.4302 1.94148 27.3122 1.96961 27.3403C1.99775 27.3685 6.02075 27.3915 10.9096 27.3915H19.7985V19.027ZM6.02395 26.3672C4.66125 26.0116 3.65946 24.9044 3.55315 23.6363C3.41392 21.9756 4.67824 20.3333 6.24691 20.1373C7.18998 20.0195 8.3258 20.4379 8.96687 21.1393C10.2368 22.5288 10.1331 24.3831 8.71234 25.6927C8.0052 26.3445 6.95073 26.6091 6.02395 26.3672ZM7.35171 24.2681C7.72898 23.9864 7.86566 23.7252 7.86566 23.286C7.86566 22.6008 7.40014 22.1736 6.65323 22.1734C6.22912 22.1732 5.91403 22.3135 5.6854 22.6042C5.46629 22.8827 5.46374 23.568 5.6805 23.9235C5.99367 24.4372 6.88036 24.62 7.35171 24.2681ZM14.3884 26.3674C13.2441 26.0692 12.359 25.2637 12.0362 24.2268C11.4736 22.4189 12.8226 20.3363 14.6846 20.1384C15.2233 20.0811 16.0032 20.2322 16.5139 20.4928C17.6528 21.0738 18.3994 22.5296 18.1812 23.7436C17.9151 25.2242 16.7175 26.3588 15.3395 26.4357C15.0126 26.4539 14.6095 26.425 14.3884 26.3674ZM15.7162 24.2681C16.0912 23.9881 16.2301 23.7247 16.2301 23.2936C16.2301 22.5353 15.7002 22.1187 14.8276 22.191C14.457 22.2218 14.3681 22.2628 14.1456 22.5057C13.9172 22.7548 13.8896 22.8327 13.8899 23.2273C13.8903 23.7885 14.0828 24.1228 14.5243 24.329C14.9152 24.5115 15.425 24.4855 15.7162 24.2681ZM62.0044 19.027H21.7936V27.3915H62.0044V19.027ZM38.4179 24.0563C37.9624 23.6341 37.9607 22.9595 38.4142 22.5614L38.6814 22.3268H41.8672C45.3625 22.3268 45.3841 22.3294 45.6195 22.7847C45.8491 23.2285 45.7155 23.8594 45.3356 24.1254C45.1872 24.2294 44.7335 24.2452 41.8932 24.2452H38.6217L38.4179 24.0563ZM15.8422 16.015C16.555 14.5539 16.5897 14.392 16.6314 12.3316L16.6668 10.5858H5.14146V12.1121C5.14146 13.6584 5.24381 14.5584 5.48541 15.1366C5.54559 15.2807 5.78934 15.766 6.02707 16.2152L6.4593 17.0318H15.3461L15.8422 16.015ZM45.6492 14.7058C44.6831 14.3764 43.7989 13.4633 43.5857 12.5745C43.4342 11.9428 43.5262 11.0692 43.8076 10.4679C44.0993 9.84451 44.7571 9.14037 45.274 8.89828L45.6592 8.71786V4.22008L36.5155 4.17818L36.2529 3.89153C36.0332 3.65186 35.9902 3.54692 35.9902 3.2511C35.9902 3.05539 36.0487 2.79828 36.1211 2.67568C36.3937 2.21429 36.3148 2.22135 41.1927 2.22135H45.643L45.6712 1.60036C45.6978 1.01455 45.7133 0.966948 45.9445 0.76035C46.2486 0.488627 46.6043 0.4166 46.9948 0.547663C47.4488 0.700035 47.608 0.971028 47.6423 1.64971L47.6712 2.22135H57.7071V1.57029C57.7071 0.968286 57.723 0.901478 57.9181 0.683725C58.305 0.252044 59.0286 0.251114 59.4134 0.681807C59.6096 0.901342 59.6256 0.967984 59.6256 1.56648V2.21373L63.3986 2.25972L63.6183 2.50573C64.0475 2.98637 63.9776 3.69896 63.4676 4.04267C63.2178 4.21102 63.1526 4.21654 61.4176 4.21654H59.6256V8.58841L60.0808 8.81824C61.2918 9.42952 62.0155 10.8047 61.7972 12.0793C61.5894 13.2925 60.7207 14.318 59.6072 14.6646C58.4626 15.0208 57.2353 14.6537 56.3279 13.6838C55.7398 13.0551 55.535 12.5388 55.5402 11.6985C55.5464 10.6988 55.8977 9.92569 56.6685 9.21512C56.8662 9.03295 57.1807 8.81629 57.3675 8.73367L57.7071 8.58344V4.21654H47.6544V8.7258L48.082 8.94217C48.6653 9.23728 49.3549 9.98514 49.5751 10.5615C50.2117 12.2278 49.3747 14.1122 47.7184 14.7416C47.1859 14.9439 46.3031 14.9286 45.6492 14.7058ZM47.2387 12.7647C47.536 12.6236 47.7732 12.2805 47.8432 11.8904C47.917 11.4786 47.6307 10.9772 47.1969 10.7585C46.0975 10.2041 45.0393 11.2025 45.5967 12.2684C45.8956 12.8399 46.6192 13.0587 47.2387 12.7647ZM59.2391 12.6386C60.0531 12.2212 60.0634 11.1092 59.2577 10.6387C58.9431 10.4549 58.3593 10.4457 58.024 10.6191C57.3631 10.9608 57.2841 11.9311 57.8725 12.4805C58.2623 12.8444 58.7318 12.8987 59.2391 12.6386Z" fill="#2C1F00"/>
</svg>
