<svg width="71" height="65" viewBox="0 0 71 65" fill="none" xmlns="http://www.w3.org/2000/svg">
<path d="M31.0332 53.8963C31.0332 55.7032 34.1864 62.8906 35.9999 62.8906C37.8019 62.8906 40.3301 55.1563 40.3301 53.3494C40.3301 51.5386 35.0265 51.7087 33.2207 51.7087C31.4071 51.7087 31.0332 52.0855 31.0332 53.8963Z" fill="#FAB608"/>
<path fill-rule="evenodd" clip-rule="evenodd" d="M34.7498 0.441671C31.6465 2.84641 28.6017 6.63263 26.9582 10.1308L26.3839 11.3531L26.0261 11.0987C23.9705 9.63774 21.6589 8.45073 19.2084 7.59771C16.7607 6.74559 16.503 6.84481 15.9741 8.84349C15.3804 11.0879 15.0371 13.721 15.018 16.1804C15.0083 17.4188 14.9935 18.4322 14.9853 18.4322C14.977 18.4323 14.423 18.1592 13.7544 17.8252C11.5443 16.7214 8.27789 15.6778 6.1778 15.4046C5.53061 15.3205 5.37169 15.3515 5.04946 15.6252C4.70713 15.916 4.6743 16.0302 4.6743 16.9336C4.6743 19.8151 5.5369 23.9727 6.79094 27.1358L7.2461 28.284L5.58409 28.3875C3.16369 28.5383 1.27368 28.9328 0.958431 29.3532C0.820705 29.5369 0.708008 29.8204 0.708008 29.9834C0.708008 30.4999 1.90391 33.3616 2.79223 34.9709C6.57484 41.8232 12.7246 46.703 20.1015 48.7054L20.6895 48.865L19.5545 50.0919C17.5706 52.2364 16.0459 54.863 15.2465 57.513L14.8764 58.7398L15.1568 59.1474C15.5589 59.7317 16.4286 59.9356 18.9174 60.0292C21.3716 60.1216 23.0641 59.8874 25.0777 59.1771C26.3511 58.7277 28.1118 57.8347 29.1953 57.0886C29.5554 56.8405 29.8686 56.6628 29.8913 56.6935C29.9139 56.7243 30.1013 57.2123 30.3078 57.7782C31.0514 59.8169 32.2087 61.6515 33.9687 63.582C35.6041 65.3757 35.8253 65.3758 37.4653 63.5837C39.2205 61.6658 40.2703 60 41.121 57.783C41.3391 57.2146 41.5329 56.7257 41.5517 56.6966C41.5705 56.6675 41.9546 56.8856 42.4052 57.1812C43.8967 58.1593 45.8264 59.0539 47.4519 59.521C49.0028 59.9664 49.1484 59.9815 51.8595 59.9779C55.0279 59.9737 55.8184 59.8253 56.2848 59.1474L56.5652 58.7398L56.1951 57.513C55.3947 54.8599 53.8551 52.2059 51.887 50.087L50.7521 48.865L51.3399 48.7069C56.4804 47.3241 61.2555 44.3731 64.8119 40.3815C67.1351 37.7742 68.9332 34.8837 70.1197 31.8496C70.8046 30.098 70.8432 29.8332 70.4832 29.3532C70.1682 28.9334 68.2786 28.5383 65.8659 28.3879L64.2123 28.2849L64.7992 26.7179C66.0129 23.4773 66.7673 19.7267 66.7673 16.9336C66.7673 16.0302 66.7345 15.916 66.3922 15.6252C66.0699 15.3515 65.911 15.3205 65.2638 15.4046C63.1637 15.6778 59.8973 16.7214 57.6872 17.8252C57.0186 18.1592 56.4647 18.4323 56.4563 18.4322C56.4481 18.4322 56.4334 17.4188 56.4236 16.1804C56.4045 13.721 56.0612 11.0879 55.4675 8.84349C54.9393 6.84732 54.6781 6.74573 52.2514 7.59269C49.7909 8.45146 47.9136 9.41375 45.4642 11.0721L45.0184 11.3739L44.7984 10.8057C43.6369 7.80384 40.1978 3.28909 37.251 0.897783C35.9275 -0.176273 35.6196 -0.232383 34.7498 0.441671ZM36.8456 3.40751C39.3022 5.68349 41.3885 8.45752 42.6372 11.1087L43.3957 12.719L42.8179 13.3547C42.1703 14.0672 42.0615 14.6718 42.4892 15.1821C42.9612 15.7451 43.5049 15.5787 44.6942 14.507C46.8115 12.5991 49.6504 10.873 52.2991 9.883L53.4909 9.43737L53.636 9.98518C54.0965 11.7235 54.3538 14.015 54.3606 16.4391C54.3698 19.652 54.0701 21.6201 53.1415 24.4477C52.8017 25.4819 52.7722 25.5213 52.2224 25.6711C50.286 26.1986 47.7432 27.3456 46.0671 28.4476C45.5516 28.7865 45.1062 29.0638 45.077 29.0638C45.0479 29.0638 44.7812 28.5421 44.4843 27.9044C43.6587 26.132 42.1632 23.8155 40.9161 22.3779L39.7915 21.0813L40.5661 19.6989C41.1828 18.5987 41.3225 18.2373 41.2506 17.9281C41.0716 17.1581 40.0769 16.8304 39.5722 17.3753C39.4338 17.5247 39.0866 18.0562 38.8006 18.5565C38.5146 19.0568 38.2576 19.4661 38.2296 19.4661C38.2015 19.4661 37.7138 19.0674 37.1458 18.5801C36.4409 17.9753 35.9922 17.6942 35.7315 17.6942C35.3645 17.6942 34.4794 18.3076 33.6365 19.1457C33.4305 19.3508 33.2372 19.49 33.2073 19.4553C33.1772 19.4206 32.7101 18.6758 32.1692 17.8001C31.5692 16.8285 30.5753 15.5242 29.62 14.4545L28.0542 12.7012L28.8085 11.0998C29.6569 9.29872 31.262 6.91037 32.6633 5.36396C33.7548 4.15952 35.5329 2.48554 35.7208 2.48554C35.7922 2.48554 36.2984 2.90045 36.8456 3.40751ZM22.2491 11.3401C25.9526 13.3343 28.9685 16.2866 30.9844 19.8907L31.6503 21.0813L30.5257 22.3777C29.2785 23.8155 27.7829 26.1319 26.9574 27.9044C26.6604 28.5421 26.3969 29.0638 26.3716 29.0638C26.3464 29.0638 25.8086 28.7312 25.1765 28.3247C23.7838 27.4292 21.5875 26.4117 19.9298 25.8942C19.2559 25.6839 18.6577 25.4305 18.6004 25.3313C18.4131 25.007 17.6742 22.37 17.4687 21.2938C17.1281 19.5077 16.9504 16.9784 17.0501 15.3317C17.1443 13.7754 17.5356 11.0042 17.8044 9.9899L17.9483 9.44682L19.1413 9.87798C19.7975 10.1151 21.196 10.7731 22.2491 11.3401ZM10.3052 18.7229C12.1504 19.3824 15.1858 21.0156 15.3295 21.4264C15.4697 21.8264 16.285 24.9967 16.2537 25.0193C16.2414 25.0282 15.862 24.984 15.4107 24.9211C14.9593 24.8581 13.8333 24.8011 12.9085 24.7941C11.2979 24.7823 11.2125 24.7971 10.8911 25.1442C10.5767 25.4835 10.5554 25.6064 10.5554 27.0796C10.5554 28.4531 10.528 28.641 10.339 28.5628C10.22 28.5135 10.0139 28.4731 9.88095 28.4731C9.70903 28.4731 9.45505 28.0506 9.00098 27.0081C7.90204 24.4858 7.11604 21.4676 6.79983 18.5559L6.70901 17.7194L7.86922 17.9932C8.50725 18.1437 9.60345 18.472 10.3052 18.7229ZM64.6428 18.4694C64.4625 20.1639 63.9956 22.5221 63.5492 23.9935C62.8864 26.178 61.8676 28.4731 61.5607 28.4731C61.4277 28.4731 61.2216 28.5135 61.1026 28.5628C60.9136 28.641 60.8863 28.4531 60.8863 27.0796C60.8863 25.6064 60.8649 25.4835 60.5505 25.1442C60.2291 24.7971 60.1438 24.7823 58.5332 24.7941C57.6083 24.8011 56.4823 24.8581 56.031 24.9211C55.5796 24.984 55.1989 25.0268 55.1847 25.0162C55.1706 25.0057 55.3165 24.4005 55.5088 23.6712C55.7011 22.9421 55.9281 22.0796 56.0132 21.7548C56.1623 21.1849 56.2302 21.1303 57.9457 20.1999C59.7925 19.1985 61.6773 18.4563 63.5533 17.9919C64.155 17.8429 64.6649 17.715 64.6862 17.7076C64.7077 17.7002 64.6882 18.0431 64.6428 18.4694ZM36.6091 20.9421C38.9212 22.9283 41.6723 26.6053 42.838 29.2672L43.3475 30.4303L41.9099 31.9251C41.1192 32.7471 39.9864 34.1173 39.3925 34.97C38.2108 36.6668 36.6424 39.8367 36.123 41.5777C35.9474 42.1665 35.7655 42.6482 35.7189 42.6482C35.6721 42.6482 35.5278 42.2848 35.3982 41.8407C34.9437 40.2841 34.5119 39.4015 34.1276 39.2437C33.641 39.0439 33.1042 39.2531 32.8488 39.742C32.6592 40.1053 32.6733 40.2201 33.0377 41.2806C33.9896 44.0512 34.5107 46.6761 34.6838 49.5726L34.758 50.812L33.0853 50.7306C30.2176 50.5913 27.4187 49.8186 24.6838 48.4115C17.6445 44.79 13.2166 37.4759 12.6661 28.5601L12.5667 26.949L14.1542 27.0469C19.3475 27.3672 24.2815 29.6009 27.8853 33.2634C28.5774 33.9669 29.4635 34.9873 29.8545 35.5313C30.7933 36.8372 31.0176 37.0372 31.5433 37.0372C32.0882 37.0372 32.4839 36.6039 32.4839 36.0072C32.4839 35.4046 31.2802 33.7433 29.5095 31.902L28.0942 30.4303L28.6036 29.2672C29.7545 26.6391 32.1211 23.438 34.6134 21.1386C35.1702 20.6247 35.6538 20.2044 35.6881 20.2044C35.7223 20.2044 36.1369 20.5363 36.6091 20.9421ZM58.774 28.5839C58.2241 37.4911 53.7974 44.79 46.7446 48.4183C44.0214 49.8193 41.2189 50.5914 38.3507 50.7309L36.6726 50.8126L36.7516 49.7204C37.0068 46.1957 37.4932 43.7663 38.4478 41.2455C41.2545 33.8349 47.5985 28.4966 55.0125 27.307C56.5009 27.068 56.7483 27.0431 57.8618 27.0187L58.8721 26.9966L58.774 28.5839ZM10.3616 30.7754C10.776 30.8605 10.7876 30.8866 11.0276 32.2884C11.7491 36.5007 13.6327 40.804 16.1997 44.1047C17.3074 45.5288 17.2747 45.5356 15.0687 44.3423C10.0774 41.6419 6.20474 37.5131 3.78585 32.3133C3.43764 31.5649 3.17313 30.9304 3.19816 30.9036C3.47306 30.6068 9.05254 30.5071 10.3616 30.7754ZM66.9725 30.7031C67.6495 30.7919 68.2227 30.8845 68.2461 30.9086C68.2696 30.9328 68.0004 31.5741 67.6478 32.3338C65.2934 37.4065 61.2591 41.7062 56.3847 44.3375C54.1886 45.5231 54.1408 45.5198 55.1334 44.2522C57.756 40.9027 59.5339 36.9089 60.3633 32.5033L60.6747 30.8485L61.4302 30.7592C61.8457 30.71 62.2779 30.6484 62.3907 30.6221C62.8987 30.5043 65.8582 30.5566 66.9725 30.7031ZM23.5742 50.3405C24.463 50.83 26.427 51.6179 27.8852 52.07L29.2243 52.4851L29.3049 54.2782L28.6456 54.8007C27.0141 56.0937 24.4755 57.2379 22.3503 57.6379C21.0706 57.8789 17.8514 57.9314 17.5367 57.7164C17.3715 57.6036 17.4466 57.344 17.9815 56.1808C18.3354 55.4109 18.9832 54.2604 19.4207 53.6241C20.267 52.3936 22.5032 50.031 22.8217 50.031C22.9265 50.031 23.2651 50.1703 23.5742 50.3405ZM50.0276 51.2492C51.5091 52.7592 52.622 54.3581 53.4601 56.1808C53.995 57.344 54.0701 57.6036 53.9049 57.7164C53.589 57.9322 50.3689 57.8784 49.0808 57.636C46.9508 57.2349 44.2129 55.9707 42.5874 54.6376C42.1548 54.2828 42.1385 54.2328 42.1771 53.3767L42.2173 52.4851L43.585 52.0622C44.9388 51.6436 47.2354 50.7079 47.9843 50.2697C48.1974 50.1449 48.4756 50.0402 48.6022 50.037C48.7289 50.0337 49.3703 50.5791 50.0276 51.2492ZM40.0951 53.2795C40.0907 53.953 39.7199 55.5595 39.2932 56.7543C38.729 58.3335 37.7064 60.0934 36.6294 61.338L35.7447 62.3604L35.1774 61.7698C33.2934 59.8087 31.682 56.3976 31.409 53.792L31.3166 52.9104H40.0974L40.0951 53.2795Z" fill="#2C1F00"/>
</svg>
