<svg width="64" height="54" viewBox="0 0 64 54" fill="none" xmlns="http://www.w3.org/2000/svg">
<path d="M18 34.0018C18 35.6538 19.7986 37 22.0094 37C24.2061 37 26 35.6538 26 34.0018C26 32.3462 24.2108 31 22.0094 31C19.7986 31 18 32.3462 18 34.0018Z" fill="#E6446D"/>
<path fill-rule="evenodd" clip-rule="evenodd" d="M12.8593 0.183016C18.2346 1.29106 21.8807 6.00685 21.5755 11.4567C21.4359 13.9499 20.6365 15.9474 18.9861 17.9265C17.3364 19.9048 15.1765 21.0652 12.0153 21.6715L11.7339 21.7255V46.7152H12.9883C14.3909 46.7152 14.8182 46.8424 15.5328 47.4726C16.413 48.2489 16.5386 48.6571 16.5885 50.9011C16.6191 52.2809 16.5856 53.0031 16.4788 53.2621C16.1791 53.9891 16.0937 54 10.7418 54H5.8612L5.04446 53.2676L5.00394 51.437C4.95655 49.2884 5.11298 48.5541 5.78668 47.7634C6.47638 46.9539 7.11894 46.7152 8.60726 46.7152H9.85963L9.79586 21.675L8.82483 21.5102C5.27515 20.908 2.0632 18.2384 0.726424 14.7794C-1.4526 9.14121 1.44364 2.71989 7.10056 0.647486C8.85709 0.00391006 11.1094 -0.177708 12.8593 0.183016ZM8.35794 2.19111C4.31886 3.43745 1.64007 7.23359 1.89177 11.3543C2.28301 17.7566 8.96187 21.6967 14.6723 18.894C15.2912 18.5901 16.1185 18.0821 16.5107 17.7648C17.7587 16.7555 18.9083 14.9806 19.4445 13.2357C19.6205 12.6625 19.6725 12.0951 19.6683 10.7935C19.6634 9.2761 19.6265 8.99225 19.3172 8.09307C18.2499 4.98999 15.8234 2.7847 12.6717 2.05358C11.6894 1.82574 9.29459 1.90211 8.35794 2.19111ZM63.6925 5.70102C64.0837 6.09389 64.0837 6.57545 63.6925 6.96832L63.3856 7.27667H47.2695C31.8153 7.27667 31.1449 7.28609 30.9465 7.5064C30.432 8.0775 30.561 8.25799 33.7351 11.404C36.6551 14.2981 36.736 14.3919 36.9388 15.1173C37.208 16.0798 37.1161 16.9978 36.668 17.825C36.2593 18.5791 33.2707 21.5606 31.7983 22.6832C28.5506 25.159 25.1152 26.6871 21.2368 27.3805C20.4425 27.5224 20.4069 27.5459 19.6738 28.4081C18.945 29.2653 18.3629 30.1014 18.3615 30.2929C18.3612 30.3448 19.6167 30.3871 21.1515 30.3871C23.2627 30.3871 24.0954 30.4329 24.571 30.5748C26.0863 31.0267 27.1135 32.4261 27.1135 34.0386C27.1135 35.6325 26.0844 37.0329 24.5845 37.4803C24.1394 37.6132 23.3925 37.672 22.1518 37.672C21.1671 37.672 20.3616 37.6861 20.3618 37.7034C20.3619 37.7206 21.0023 39.7312 21.785 42.1713C23.3215 46.9616 23.4442 47.2146 24.3556 47.4689C24.7549 47.5803 28.739 47.6556 28.739 47.5517C28.739 47.5282 28.6221 47.0618 28.4792 46.5155C28.2885 45.7864 28.2193 45.1376 28.2193 44.0776C28.2193 42.2814 28.4972 41.1354 29.3239 39.5215C30.4164 37.3891 32.6236 35.4832 34.8658 34.7365C37.3129 33.9215 39.8158 34.0457 42.0753 35.0944C45.6884 36.7713 47.8753 40.1965 47.8675 44.1665C47.8657 45.1164 47.7821 45.6853 47.4058 47.3118L47.3404 47.5944H63.4812L63.7402 47.9253C64.0841 48.3643 64.0676 48.7934 63.6925 49.17L63.3856 49.4784L46.3067 49.4936L45.744 50.2356C44.7944 51.4881 43.0202 52.8107 41.5468 53.3645C39.6512 54.0769 37.1113 54.1802 35.3034 53.6188C33.3617 53.0157 31.44 51.7176 30.3153 50.2495L29.7377 49.4953L26.8939 49.4555C24.1349 49.4167 24.0296 49.4059 23.3624 49.0902C22.5949 48.7269 21.8468 48.0179 21.5353 47.3588C21.4221 47.1189 20.2352 43.4989 18.8978 39.3143L16.4661 31.7059L16.5082 30.7011C16.539 29.9686 16.6291 29.5351 16.8408 29.1014C17.2646 28.2333 25.913 18.1245 26.3195 18.022C26.9595 17.8606 27.663 18.6613 27.397 19.248C27.3246 19.4078 26.2131 20.7685 24.9272 22.2718C23.6415 23.7753 22.6205 25.0366 22.6587 25.0749C22.7716 25.1883 24.8237 24.5009 26.1225 23.9146C28.7899 22.7103 30.861 21.2275 33.3876 18.7128C35.7664 16.3454 35.7972 16.0976 33.9467 14.2113L32.7963 13.0388L31.5662 14.4918C29.731 16.6594 29.4745 16.8292 28.8184 16.3107C28.5781 16.1209 28.4889 15.9351 28.4889 15.6241C28.4889 15.2617 28.7072 14.9411 29.9417 13.4897L31.3946 11.7817L30.2723 10.6282C29.0117 9.33262 28.8068 8.91023 28.8884 7.77593C28.9574 6.81798 29.4101 6.14539 30.2781 5.71081L30.9138 5.39267H63.3856L63.6925 5.70102ZM63.7402 13.762C64.1617 14.3002 64.0646 14.833 63.4903 15.1313C63.1981 15.2832 62.3086 15.3151 58.3674 15.3151C54.0999 15.3151 53.4698 15.3413 52.3781 15.5648C49.5988 16.1338 47.2651 17.3945 45.3064 19.3853C44.1654 20.5448 42.1127 23.3858 41.9393 24.0453C41.7885 24.6181 42.0821 25.2683 42.6477 25.6147C43.0461 25.8587 43.2943 25.8646 53.2206 25.865L63.3856 25.8655L63.6925 26.1739C64.0837 26.5668 64.0837 27.0483 63.6925 27.4412L63.3856 27.7495H53.2121C41.4921 27.7495 42.1228 27.8049 41.03 26.679C39.9427 25.5591 39.708 24.027 40.4285 22.753C41.1708 21.4402 42.9113 19.164 44.0555 18.0095C45.8511 16.1979 47.7565 15.0155 50.2122 14.1891C52.2006 13.52 53.1711 13.4321 58.5825 13.4316L63.4812 13.4311L63.7402 13.762ZM54.2922 31.2755C54.7051 31.6017 54.7439 32.2739 54.3716 32.6479C54.143 32.8775 53.9548 32.8991 52.1778 32.8991C50.2808 32.8991 50.2266 32.8917 49.9271 32.5908C49.7583 32.4212 49.6202 32.1361 49.6202 31.9571C49.6202 31.7782 49.7583 31.493 49.9271 31.3235C50.2255 31.0237 50.2856 31.0151 52.0984 31.0151C53.7952 31.0151 53.9923 31.0385 54.2922 31.2755ZM18.672 32.4281C18.7013 32.5146 18.9557 33.3058 19.2374 34.1865L19.7496 35.788H21.8203C23.6904 35.788 23.9362 35.7625 24.3569 35.5249C24.958 35.1856 25.2379 34.6974 25.2379 33.9883C25.2379 33.335 24.8216 32.728 24.1814 32.4479C23.6477 32.2144 18.5935 32.1963 18.672 32.4281ZM36.1162 36.3118C35.8067 36.3848 35.0784 36.6712 34.4977 36.948C32.4797 37.9103 30.8541 39.9355 30.2871 42.1936C30.0209 43.2538 30.0251 45.0396 30.2964 46.0771C31.4902 50.6417 36.3536 53.2396 40.7044 51.6368C42.0264 51.1499 42.9226 50.5445 43.914 49.4688C45.4127 47.8428 46.0684 45.9902 45.9553 43.7008C45.8851 42.276 45.6596 41.4578 44.9892 40.1943C43.8991 38.1398 41.6008 36.5388 39.1945 36.1575C38.46 36.0412 36.94 36.1173 36.1162 36.3118ZM39.346 39.8607C40.1085 40.1101 40.3674 40.3832 40.3674 40.9376C40.3674 41.6299 40.0361 41.8771 39.2765 41.7516C38.9481 41.6973 38.3325 41.6475 37.9085 41.6407C37.2423 41.63 37.0653 41.6796 36.6067 42.0052C35.2422 42.9738 35.136 44.9376 36.39 46.0156C37.8981 47.3123 40.1177 46.496 40.5496 44.4859C40.7934 43.3516 42.368 43.4863 42.368 44.6414C42.368 45.6654 41.567 47.0205 40.5437 47.7278C39.7494 48.2768 39.0475 48.4933 38.0542 48.4957C36.3076 48.4998 34.7679 47.5174 34.0418 45.9353C33.732 45.2604 33.6791 44.9896 33.6786 44.0776C33.6781 43.1857 33.7322 42.8938 34.0074 42.3041C34.7463 40.7214 36.1208 39.7969 37.8436 39.7241C38.439 39.6989 39.0104 39.7509 39.346 39.8607ZM7.4758 48.7286C7.01479 48.9764 6.85749 49.5171 6.85749 50.8537V52.116H14.7563L14.7143 50.6604C14.6734 49.2444 14.6628 49.1967 14.3215 48.902C13.971 48.5994 13.9681 48.5992 10.8434 48.5992C8.93773 48.5992 7.62235 48.6497 7.4758 48.7286Z" fill="#2C1F00"/>
<path d="M9.8192 7.47875V10.99C9.8192 11.058 9.85788 11.1017 9.93523 11.1212C10.3027 11.1697 10.6604 11.194 11.0086 11.194C11.7918 11.194 12.3865 11.024 12.7926 10.6841C13.2084 10.3344 13.4163 9.83903 13.4163 9.19797C13.4163 7.90613 12.6137 7.26021 11.0086 7.26021C10.6604 7.26021 10.3027 7.28449 9.93523 7.33305C9.85788 7.35248 9.8192 7.40105 9.8192 7.47875ZM8.62985 16.4537C8.40745 16.4537 8.21406 16.3711 8.04967 16.206C7.89496 16.0408 7.81761 15.8466 7.81761 15.6232V6.72113C7.81761 6.48802 7.89496 6.27918 8.04967 6.09464C8.20439 5.91009 8.39778 5.8081 8.62985 5.78867C9.45176 5.71097 10.2447 5.67212 11.0086 5.67212C12.459 5.67212 13.5468 5.96351 14.272 6.54629C14.9972 7.11937 15.3598 7.95469 15.3598 9.05227C15.3598 10.2664 15.0069 11.1843 14.301 11.8059C13.6048 12.4276 12.5702 12.7384 11.1971 12.7384C10.878 12.7384 10.4574 12.719 9.93523 12.6801C9.85788 12.6801 9.8192 12.719 9.8192 12.7967V15.6232C9.8192 15.8466 9.73701 16.0408 9.57263 16.206C9.40824 16.3711 9.21485 16.4537 8.99245 16.4537H8.62985Z" fill="#2C1F00"/>
</svg>
