<svg width="64" height="64" viewBox="0 0 64 64" fill="none" xmlns="http://www.w3.org/2000/svg">
<path d="M43.5 7.49998C45.1 10.3 45.8333 16 46 18.5L26.5 16C27 13.5 28.8 7.69998 32 4.49998C35.2 1.29998 37.3333 0.833316 38 0.999982C39.1667 1.99998 41.9 4.69998 43.5 7.49998Z" fill="#FAB608"/>
<path fill-rule="evenodd" clip-rule="evenodd" d="M31.498 0.131598C28.0869 0.504077 24.5613 1.74876 21.7299 3.58033C20.3173 4.49395 19.979 4.82109 19.979 5.27353C19.979 5.7048 20.4985 6.25339 20.907 6.25339C21.0797 6.25339 21.6872 5.93709 22.2571 5.5505C25.3466 3.45464 28.5926 2.34727 32.6728 1.99713L33.6732 1.91129L33.0479 2.40762C29.2848 5.39438 26.4501 9.92801 25.4762 14.5169C25.3324 15.1947 25.2851 15.2683 24.9929 15.2696C24.5361 15.2714 15.0518 14.1911 14.98 14.129C14.806 13.9782 16.5571 11.1753 17.7474 9.69951C18.7038 8.51387 18.8201 8.07934 18.3139 7.58261C17.6294 6.91082 17.0228 7.34522 15.3662 9.69428C14.3377 11.1527 13.7717 12.1259 13.1089 13.5755C12.6735 14.5272 12.5807 14.8912 12.4389 16.2042C12.3445 17.0789 12.3186 17.8533 12.3781 18.0215C12.6139 18.6873 13.2613 18.8483 13.7835 18.371C14.0458 18.1312 14.1256 17.9008 14.2177 17.1189C14.2797 16.592 14.3502 16.1402 14.3745 16.1149C14.3986 16.0895 16.8092 16.3444 19.7313 16.6814C24.1288 17.1883 25.042 17.3275 25.0325 17.4894C25.0262 17.5971 24.9823 18.083 24.9351 18.5691C24.8545 19.3961 24.869 19.474 25.1597 19.7776C25.5558 20.1914 26.0985 20.2021 26.4571 19.8035C26.6574 19.5807 26.747 19.2644 26.8099 18.5583C26.8561 18.0375 26.9281 17.5903 26.9696 17.5641C27.084 17.4922 34.0794 18.326 34.1712 18.4225C34.2151 18.4688 33.7285 23.4513 33.0897 29.495L31.9281 40.4833H23.7211C17.7796 40.4833 15.3968 40.5255 15.089 40.6361C13.4773 41.2158 12.5105 42.9508 12.8574 44.6409C13.1822 46.2228 14.5781 47.4076 16.1167 47.4076H16.86L16.7899 50.7116L15.5212 51.0087C12.5726 51.6991 9.4502 53.0509 7.24549 54.5915C6.60881 55.0363 5.50926 55.9683 4.80192 56.6625C4.09457 57.3568 3.202 58.16 2.81832 58.4474C1.89761 59.1373 1.19314 60.0436 0.584466 61.3217C-0.0896152 62.7371 -0.157148 63.2267 0.261308 63.6638L0.583091 64H63.3867L63.6936 63.6793C64.0467 63.3106 64.0806 62.8818 63.8265 61.9995C63.17 59.721 59.6655 57.4627 55.3795 56.5564C51.5699 55.7509 47.1768 55.8981 43.2428 56.9631C40.7471 57.6389 40.8275 57.6352 39.6552 57.1282C37.0394 55.997 34.0803 55.4685 30.3591 55.468C27.2014 55.4676 25.4696 55.6989 22.2301 56.5534C20.3672 57.0448 19.9721 57.1048 18.1654 57.1693C16.8004 57.2182 15.3116 57.1688 13.4821 57.014C12.007 56.8891 10.0798 56.7784 9.19946 56.768C8.31915 56.7575 7.59867 56.7331 7.59842 56.7137C7.59667 56.5882 9.59528 55.3687 10.7637 54.7822C14.2458 53.0345 17.9721 52.2326 22.6078 52.2334C25.6803 52.2339 26.7318 52.3503 31.172 53.1819C32.3004 53.3933 36.3097 53.346 37.9879 53.1014C40.7256 52.7027 42.4388 52.5195 44.9913 52.353C48.2804 52.1384 58.565 52.1297 60.4364 52.34C61.193 52.4249 62.1589 52.5336 62.5827 52.5815C63.2999 52.6623 63.3759 52.645 63.677 52.3303C64.366 51.6106 63.9059 50.7713 62.7418 50.624C61.1222 50.419 59.3982 50.2911 57.091 50.2048L54.621 50.1125V47.4359L56.028 47.3887C57.2926 47.3462 57.4941 47.3052 58.0197 46.9828C60.3093 45.5783 60.3115 42.3118 58.0236 40.9113C57.5217 40.6039 57.2745 40.5485 56.2062 40.5037L54.9698 40.4518L58.3464 36.9073C60.5572 34.5866 61.821 33.16 62.0071 32.775C62.3679 32.0288 62.4012 30.8643 62.0862 30.0091C61.8306 29.3149 61.0021 28.4469 60.3045 28.1425C59.7113 27.8835 58.3723 27.8835 57.7748 28.1426C57.4564 28.2806 55.4756 30.2581 51.4928 34.4137L45.6756 40.4833H41.1325L40.8734 40.8275C40.5503 41.2567 40.5435 41.6697 40.8532 42.0692L41.0921 42.3777L49.0134 42.443C55.1249 42.4934 56.9987 42.5465 57.2148 42.6756C57.8136 43.033 58.0321 43.963 57.6829 44.6683C57.2697 45.5032 58.7924 45.4479 36.1902 45.4479H15.621L15.2446 45.117C14.4718 44.4377 14.4923 43.3825 15.291 42.7263L15.6356 42.443H26.5447C37.3918 42.443 37.4557 42.4414 37.7834 42.1722C38.1963 41.8329 38.2352 41.1336 37.8628 40.7446C37.6349 40.5065 37.446 40.4833 35.7368 40.4833C34.0848 40.4833 33.8608 40.4578 33.8608 40.2699C33.8608 39.995 36.1184 18.6131 36.1505 18.5858C36.1715 18.5678 44.5032 19.5377 44.5856 19.5678C44.6032 19.5743 44.5814 20.0712 44.5372 20.6721C44.4634 21.675 44.4788 21.7878 44.7241 22.044C45.0676 22.4028 45.7476 22.416 46.0475 22.0697C46.185 21.911 46.3138 21.4336 46.3923 20.7918L46.5174 19.7673L51.2258 20.3146C53.8154 20.6154 55.9556 20.8672 55.9816 20.8739C56.0077 20.8805 55.9907 21.3446 55.944 21.9051C55.8673 22.8229 55.8852 22.9591 56.1244 23.2769C56.4666 23.7313 57.088 23.7585 57.4676 23.3357C57.6846 23.0941 57.7591 22.7508 57.8863 21.4086C58.034 19.8508 58.0278 19.7183 57.7533 18.5343C56.6849 13.926 54.0574 9.3687 50.653 6.21929C48.5303 4.25578 45.2557 2.31539 42.4458 1.35617C39.0842 0.208681 34.9883 -0.249503 31.498 0.131598ZM38.5777 2.83602C42.1118 5.90861 44.4669 10.9859 44.8142 16.2807L44.902 17.6199L44.3526 17.5453C44.0505 17.5043 40.1055 17.0464 35.5861 16.5277C31.0666 16.009 27.3291 15.5431 27.2805 15.4923C27.2318 15.4415 27.3161 14.9154 27.4678 14.3233C28.2461 11.2856 29.8247 8.41771 32.0426 6.01222C33.3137 4.63361 34.2784 3.82908 35.7483 2.9216C37.274 1.97975 37.582 1.97047 38.5777 2.83602ZM43.1625 3.69125C47.8476 5.5539 52.1132 9.67899 54.3704 14.53C54.9019 15.6721 55.8717 18.3978 55.8717 18.7495C55.8717 18.8137 53.8175 18.6318 51.3069 18.3454L46.7422 17.8245V17.1291C46.7422 16.7466 46.6829 15.8627 46.6104 15.1651C46.1795 11.0172 44.6479 7.06028 42.2924 4.00951C41.5317 3.02442 41.5075 3.03317 43.1625 3.69125ZM59.9103 30.1641C60.3028 30.4867 60.5391 31.184 60.4252 31.684C60.3673 31.9385 59.0689 33.3918 56.3283 36.2699L52.316 40.4833L48.3054 40.4824L58.4418 29.9008H59.0158C59.4019 29.9008 59.6947 29.987 59.9103 30.1641ZM21.7299 48.7835C21.7299 49.7703 21.6856 50.1737 21.5735 50.2099C21.4876 50.2378 20.8122 50.2965 20.0728 50.3407L18.7284 50.4208V49.0013C18.7284 48.2207 18.7659 47.5426 18.8118 47.4948C18.8576 47.4468 19.5329 47.4076 20.3125 47.4076H21.7299V48.7835ZM31.1899 47.6363C31.156 47.762 31.0588 48.5912 30.9739 49.4787L30.8196 51.0926L30.308 51.0051C28.1228 50.6314 26.3255 50.3983 25.0753 50.3263L23.6058 50.2418V47.4076H27.4285C31.0094 47.4076 31.2476 47.4221 31.1899 47.6363ZM47.7427 50.2466L46.0231 50.3365C43.6178 50.4621 40.4062 50.7583 38.9228 50.9911C37.0643 51.2828 34.1672 51.4952 33.4044 51.3957C32.7829 51.3146 32.7353 51.2835 32.7357 50.9584C32.736 50.5905 32.9446 48.557 33.0563 47.8323L33.1218 47.4076H47.7427V50.2466ZM52.7451 50.1513H49.6186V48.8666C49.6186 48.1599 49.6561 47.5426 49.702 47.4948C49.7478 47.4468 50.4512 47.4076 51.2653 47.4076H52.7451V50.1513ZM32.7353 57.4754C36.1668 57.8037 39.5414 58.9017 41.5555 60.3452C42.1333 60.7594 43.1154 61.754 43.1154 61.925C43.1154 61.9911 34.4216 62.0403 22.7224 62.0403H2.32932L2.61572 61.5079C3.25553 60.3187 4.61595 59.3454 6.18985 58.9508C7.29039 58.675 10.1078 58.6775 13.287 58.9571C16.0397 59.1992 18.6687 59.2258 20.0638 59.0256C20.6018 58.9483 21.7736 58.6891 22.6678 58.4497C26.3047 57.4752 29.5006 57.1659 32.7353 57.4754ZM53.3328 58.192C56.7932 58.6652 59.5063 59.7601 61.0949 61.3244L61.8121 62.0307L45.2842 62.0403L44.9814 61.3554C44.8103 60.9684 44.3412 60.3165 43.903 59.8567C43.4764 59.4093 43.1722 59.0141 43.2269 58.9788C43.4105 58.8602 46.4185 58.2617 47.43 58.1424C49.0443 57.952 51.7436 57.9746 53.3328 58.192Z" fill="#2C1F00"/>
</svg>
