<svg width="64" height="64" viewBox="0 0 64 64" fill="none" xmlns="http://www.w3.org/2000/svg">
<path d="M30 30.0023C30 32.205 31.7986 34 34.0094 34C36.2061 34 38 32.205 38 30.0023C38 27.795 36.2108 26 34.0094 26C31.7986 26 30 27.795 30 30.0023Z" fill="#FAB608"/>
<path fill-rule="evenodd" clip-rule="evenodd" d="M32.5481 0.163022C31.8639 0.416374 31.0767 1.10802 30.6554 1.8266C30.3501 2.34709 30.3125 2.53503 30.3125 3.53892C30.3125 4.45334 30.365 4.77198 30.5901 5.22355C30.7429 5.5299 30.8554 5.7929 30.8401 5.80781C30.825 5.82285 30.25 5.93048 29.5625 6.04701C26.104 6.6334 22.4875 8.16817 19.5035 10.3159C18.8722 10.7702 18.342 11.1228 18.3251 11.0994C18.3083 11.076 18.1924 10.7749 18.0678 10.4303C17.7674 9.59982 16.7585 8.60007 15.938 8.31978C14.6329 7.87397 13.281 8.14662 12.2677 9.05992C10.2096 10.9147 10.9325 14.3569 13.5538 15.1833C14.0205 15.3306 14.2184 15.4505 14.155 15.5477C14.103 15.6275 13.7073 16.2285 13.2755 16.8831C11.4858 19.5971 10.1702 23.0166 9.6255 26.3711L9.4785 27.2762L8.833 26.9382C7.9585 26.4801 6.59637 26.4535 5.7375 26.8778C5.03488 27.2247 4.31213 27.9279 3.969 28.5985C3.611 29.2981 3.535 30.5803 3.80363 31.391C4.46513 33.3872 6.9135 34.4313 8.77175 33.5094C9.13288 33.3302 9.44463 33.1999 9.4645 33.2197C9.48425 33.2396 9.59075 33.7867 9.70113 34.4355C10.3411 38.1972 12.7872 43.8222 13.7832 43.8222C14.0816 43.8222 14.625 43.3228 14.625 43.0488C14.625 42.9091 14.3125 42.2415 13.9306 41.5654C12.2987 38.6766 11.2206 35.168 11.0371 32.1494L10.9622 30.9165H28.9604L29.1191 31.449C29.2064 31.7419 29.3895 32.2014 29.526 32.4701L29.7741 32.9586L24.7412 38.0046C20.1981 42.5595 19.7084 43.0899 19.7084 43.4542C19.7084 43.7027 19.7975 43.923 19.9405 44.0279C20.5375 44.4653 20.5782 44.4317 25.8382 39.1603L30.8652 34.1226L31.3895 34.4179C31.678 34.5804 32.1442 34.7815 32.4258 34.8647L32.9375 35.0162L33 43.2216C33.0684 52.2002 33.0348 51.8412 33.8084 51.8412C34.6626 51.8412 34.6196 52.2791 34.6554 43.2007L34.6875 35.0164L35.1992 34.8649C35.4808 34.7815 35.9471 34.5803 36.2357 34.4178L36.7604 34.1222L49.5272 46.9195L48.6074 47.7007C45.8515 50.0412 42.2542 51.8322 38.7816 52.5929C37.6191 52.8475 37.375 53.0252 37.375 53.6164C37.375 53.8511 37.4781 54.0332 37.6898 54.1723C37.9632 54.3518 38.1064 54.3596 38.7835 54.2314C39.7635 54.0457 41.7694 53.434 42.9834 52.9506C43.4945 52.7471 43.956 52.6257 44.0091 52.6808C44.0622 52.7358 44.5101 53.7677 45.0045 54.9737C46.2933 58.1176 46.283 58.1006 46.8869 58.1042C47.266 58.1065 47.625 57.7584 47.625 57.3886C47.625 57.2461 47.1469 55.9702 46.5625 54.5533C45.9781 53.1364 45.5011 51.9324 45.5024 51.8778C45.5037 51.8233 45.8553 51.5731 46.2836 51.322C46.712 51.0709 47.4924 50.5562 48.0177 50.1783L48.9729 49.491L49.0546 50.003C49.253 51.2467 49.958 52.2362 51.0625 52.821C51.9154 53.2726 53.4159 53.2969 54.2152 52.872C55.04 52.4336 55.5851 51.8853 55.9603 51.1166C56.6341 49.7362 56.3419 48.076 55.2295 46.9646C54.7149 46.4505 53.699 45.9551 53.1562 45.9535C52.9328 45.9527 52.75 45.9169 52.75 45.8735C52.75 45.8303 53.0246 45.4216 53.3604 44.9651C54.4235 43.5199 55.1351 42.3336 55.8779 40.7687C56.9306 38.5508 57.4248 36.9066 58.0744 33.4609L58.1261 33.1863L58.8444 33.517C60.6693 34.3577 62.6644 33.6282 63.6534 31.7587C64.0772 30.9575 64.053 29.4534 63.6025 28.5985C62.9081 27.281 61.8265 26.6125 60.3701 26.6011C59.5826 26.595 59.3212 26.6491 58.7805 26.9301L58.1333 27.2666L58.0542 26.8048C57.5545 23.8855 56.957 21.9324 55.8679 19.658C55.1876 18.2374 54.1066 16.4606 53.1442 15.1816L52.7598 14.6705L53.4185 14.4623C54.2122 14.2115 55.0076 13.5575 55.46 12.7838C55.7219 12.3358 55.8055 12.0022 55.8503 11.2261C55.9031 10.3105 55.8784 10.1793 55.5105 9.43042C54.6876 7.75494 52.9679 7.01142 51.1599 7.5497C50.0416 7.88249 49.2685 8.7493 48.6679 10.343L48.5592 10.6315L47.8734 10.1409C45.0317 8.10828 41.252 6.56875 37.6671 5.98398L36.7718 5.83801L37.1046 5.19486C37.5563 4.32228 37.5775 2.94664 37.1525 2.08208C36.7941 1.35285 36.1396 0.671605 35.4618 0.322025C34.7819 -0.0285586 33.2864 -0.110127 32.5481 0.163022ZM34.8848 1.88173C36.2148 2.78012 36.2148 4.42302 34.8848 5.32141C34.3049 5.71321 33.3237 5.71409 32.7373 5.32341C32.2694 5.0118 31.75 4.10589 31.75 3.60157C31.75 3.09725 32.2694 2.19134 32.7373 1.87973C33.3237 1.48905 34.3049 1.48993 34.8848 1.88173ZM33 16.2956V25.356L32.3942 25.5116C32.0611 25.5972 31.5925 25.8008 31.3528 25.9641L30.917 26.2609L18.2004 13.5121L18.444 13.2397C18.5779 13.09 19.1397 12.6126 19.6924 12.179C23.1528 9.464 27.4334 7.75945 31.7577 7.37466C32.4066 7.3169 32.9516 7.26189 32.9688 7.2525C32.9859 7.24297 33 11.3124 33 16.2956ZM38.2481 7.73051C41.0537 8.26854 43.9779 9.47929 46.3844 11.0993C47.7283 12.0038 49.375 13.3104 49.375 13.472C49.375 13.5224 46.5409 16.4041 43.077 19.8757L36.779 26.1879L36.1082 25.8602C35.7394 25.68 35.2547 25.4965 35.0312 25.4524L34.625 25.3721V7.28971L35.7624 7.3808C36.3879 7.43092 37.5065 7.58829 38.2481 7.73051ZM53.2024 9.19273C54.4224 9.77311 54.6809 11.4644 53.7 12.4476C52.3857 13.765 50.25 12.8455 50.25 10.9624C50.25 9.51863 51.8592 8.55396 53.2024 9.19273ZM15.7513 10.0231C16.461 10.5074 16.6875 10.924 16.6875 11.7459C16.6875 12.2939 16.6214 12.5689 16.426 12.8331C15.5063 14.0773 13.8688 14.0773 12.949 12.8331C12.7536 12.5689 12.6875 12.2939 12.6875 11.7459C12.6875 10.924 12.914 10.5074 13.6237 10.0231C13.9215 9.81985 14.2186 9.74116 14.6875 9.74116C15.1564 9.74116 15.4535 9.81985 15.7513 10.0231ZM29.5261 27.8591C29.3896 28.1279 29.2064 28.5875 29.1191 28.8804L28.9604 29.4129H10.9622L11.0385 28.2539C11.2544 24.9734 12.4234 21.3553 14.2436 18.3346C14.9127 17.2242 16.0132 15.7248 16.6677 15.0316L17.0555 14.6211L29.7744 27.3702L29.5261 27.8591ZM51.512 15.7241C54.4246 19.3393 56.273 23.9142 56.5816 28.2716L56.6624 29.4129H38.6449L38.5571 29.0057C38.5089 28.7818 38.3394 28.3447 38.1805 28.0346L37.8915 27.4708L44.2265 21.1119C47.7108 17.6145 50.5994 14.7531 50.6456 14.7531C50.6919 14.7531 51.0818 15.19 51.512 15.7241ZM35.1945 27.2044C36.837 27.971 37.5721 30.0531 36.7621 31.6445C36.4346 32.2879 35.5197 33.0888 34.8991 33.2751C33.1005 33.8153 31.1947 32.8401 30.6846 31.1185C30.4529 30.3361 30.4529 29.9933 30.6846 29.2109C31.0834 27.8652 32.3823 26.9095 33.8125 26.9095C34.3379 26.9095 34.7519 26.9978 35.1945 27.2044ZM8.353 28.4985C9.26775 29.1776 9.5435 30.4367 8.96775 31.3052C8.65687 31.7742 7.75313 32.2948 7.25 32.2948C6.74687 32.2948 5.84312 31.7742 5.53225 31.3052C5.20175 30.8066 5.15013 29.8434 5.42562 29.3127C5.64525 28.8897 6.09212 28.4658 6.50012 28.2939C6.9605 28.0998 7.9655 28.2108 8.353 28.4985ZM61.4663 28.4917C62.1178 28.9793 62.3125 29.3736 62.3125 30.2052C62.3125 31.1621 61.9733 31.7087 61.1536 32.0721C60.3715 32.4189 59.6404 32.2959 58.9915 31.7082C57.5303 30.385 58.5084 28.0705 60.4739 28.2004C60.8811 28.2272 61.2625 28.3392 61.4663 28.4917ZM56.5865 32.0755C56.2909 36.5688 54.1943 41.6242 51.1628 45.1533L50.6379 45.7643L37.8611 32.9696L38.1805 32.3321C38.3563 31.9814 38.5 31.6286 38.5 31.5479C38.5 31.4672 38.5583 31.2921 38.6294 31.1588C38.7555 30.9228 38.9881 30.9165 47.7108 30.9165H56.6628L56.5865 32.0755ZM9.64888 45.5852C6.8955 45.8268 4.002 46.6073 1.5 47.7831C0.247375 48.3718 0 48.5792 0 49.0411C0 49.3488 0.44075 49.8365 0.71875 49.8365C0.813 49.8365 1.35087 49.6192 1.91387 49.3536C2.47688 49.088 3.06413 48.8304 3.21875 48.7813L3.5 48.6919V56.065C3.5 64.2766 3.47125 63.9951 4.31063 63.9951C5.16963 63.9951 5.125 64.4418 5.125 55.8454V48.0893L5.78125 47.9039C7.12875 47.5231 10.0959 47.0838 11.3438 47.0803C11.4671 47.08 11.5 48.799 11.5 55.259C11.5 64.3622 11.4659 63.9951 12.3106 63.9951C13.1722 63.9951 13.125 64.4972 13.125 55.333V47.0647L14.0312 47.1408C15.8574 47.2943 17.0901 47.4644 18.2812 47.7274L19.5 47.9966V55.7174C19.5 64.3135 19.4689 63.9951 20.3106 63.9951C21.1683 63.9951 21.125 64.415 21.125 56.0942V48.5871L21.7812 48.8451C22.8319 49.2581 24.5265 50.2017 26.0366 51.2147L27.4375 52.1545L27.5 57.9182C27.5344 61.0882 27.608 63.7524 27.6636 63.8385C27.7926 64.0383 28.6524 64.0428 28.85 63.8447C28.9619 63.7326 29 62.3774 29 58.5196C29 55.6734 29.0341 53.3448 29.0759 53.3448C29.1176 53.3448 29.9474 53.8743 30.9196 54.5216C31.892 55.1689 33.3765 56.1077 34.2188 56.6079L35.75 57.5173V60.5593C35.75 63.9412 35.7628 63.9951 36.5644 63.9951C37.3186 63.9951 37.375 63.7802 37.375 60.9054V58.3726L38.5335 58.9227C39.8507 59.5482 41.6017 60.148 42.8426 60.3988L43.6875 60.5696L43.75 62.162C43.8184 63.9045 43.8574 63.9897 44.5866 63.9932C45.2299 63.9962 45.375 63.6572 45.375 62.1503V60.8627L47.2188 60.8588C48.8875 60.8553 50.3504 60.7407 51.2812 60.5408L51.625 60.4668V61.9525C51.625 63.6796 51.7486 63.9951 52.4253 63.9951C53.1583 63.9951 53.25 63.756 53.25 61.8472V60.1576L54.2812 59.864C55.4167 59.5408 57.588 58.7236 58.9179 58.119C59.3884 57.9051 59.7961 57.7302 59.8241 57.7302C59.8521 57.7302 59.8759 58.9847 59.8769 60.5181C59.879 63.7384 59.9191 63.9099 60.6854 63.9729C61.4945 64.0395 61.5 64.0138 61.5 60.1744V56.7774L62.6273 56.051C63.7576 55.3225 64 55.0709 64 54.6255C64 54.3088 63.5801 53.9395 63.2229 53.9417C63.0659 53.9427 62.3856 54.2922 61.7111 54.7184C59.8939 55.867 56.9593 57.2612 55.0221 57.8965C51.8131 58.9489 49.4202 59.3107 46.4375 59.1947C43.4011 59.0765 41.3018 58.5119 38.3125 57.0099C35.44 55.5663 33.7469 54.5201 28.5 50.9455C27.0219 49.9384 25.25 48.8007 24.5625 48.4172C22.1208 47.0548 19.3135 46.1397 16.4556 45.7742C14.6076 45.5379 11.25 45.4446 9.64888 45.5852ZM53.269 47.5842C53.8534 47.747 54.5837 48.549 54.6966 49.1519C54.8615 50.0329 54.3732 51.0086 53.5783 51.3868C51.8218 52.2224 50.0206 50.4151 50.8659 48.665C51.3306 47.7026 52.2343 47.2962 53.269 47.5842Z" fill="#2C1F00"/>
</svg>
