<svg width="64" height="48" viewBox="0 0 64 48" fill="none" xmlns="http://www.w3.org/2000/svg">
<path d="M29 42.0017C29 43.6537 30.3489 44.9999 32.007 44.9999C33.6546 44.9999 35 43.6537 35 42.0017C35 40.3462 33.6581 38.9999 32.007 38.9999C30.3489 38.9999 29 40.3462 29 42.0017Z" fill="#FAB608"/>
<path d="M63.9731 14.7539V14.5093L63.726 14.2618C63.6895 14.2191 63.653 14.1821 63.6109 14.1452C46.159 -3.49608 17.78 -3.50746 0.330944 14.1252C-0.109846 14.5661 -0.109846 15.2886 0.328136 15.7324C0.763311 16.1761 1.47644 16.1789 1.91442 15.7352C18.5016 -1.02141 45.4796 -1.0015 62.0555 15.7864C62.2324 15.9713 62.4711 16.1021 62.735 16.1363C62.7827 16.142 62.8304 16.1448 62.8753 16.1448C63.434 16.1448 63.917 15.7238 63.9871 15.1492C64.0096 15.0127 64.0012 14.879 63.9731 14.7539Z" fill="#2C1F00"/>
<path d="M6.7631 20.6447C6.32231 21.0884 6.32231 21.8081 6.7603 22.2547C6.97929 22.4794 7.26847 22.5903 7.55765 22.5903C7.84402 22.5903 8.13039 22.4794 8.34938 22.2604C21.4018 9.09912 42.6131 9.11903 55.4858 22.1352C55.5167 22.1807 55.5644 22.2461 55.6037 22.286L57.2153 20.7016C43.3234 6.62445 20.6915 6.60169 6.7631 20.6447Z" fill="#2C1F00"/>
<path d="M13.2009 27.167C12.7629 27.6108 12.7601 28.3304 13.1981 28.777C13.6332 29.2207 14.3464 29.2236 14.7872 28.7798C24.1785 19.3135 39.3675 19.2339 49.0565 28.6689C49.2558 28.9875 49.6067 29.2008 50.0054 29.2008C50.6259 29.2008 51.1284 28.6916 51.1284 28.063L51.2941 27.5596L50.7719 27.2239C40.4288 16.7421 23.5749 16.7137 13.2009 27.167Z" fill="#2C1F00"/>
<path d="M19.633 33.6893C19.1922 34.1331 19.1894 34.8527 19.6274 35.2993C20.0598 35.7402 20.7729 35.7487 21.2165 35.305C27.1658 29.3316 36.8238 29.3487 42.745 35.3505C42.964 35.5724 43.2504 35.6833 43.5396 35.6833C43.8287 35.6833 44.1151 35.5724 44.3341 35.3505C44.7721 34.9068 44.7721 34.1871 44.3341 33.7434C37.5426 26.857 26.4583 26.8342 19.633 33.6893Z" fill="#2C1F00"/>
<path d="M32.0566 37.6858C29.4933 37.6858 27.4072 39.7964 27.4072 42.3905C27.4072 44.9846 29.4933 47.0924 32.0566 47.0924C34.6143 47.0924 36.6947 44.9846 36.6947 42.3905C36.6919 39.7964 34.6115 37.6858 32.0566 37.6858ZM32.0566 44.8168C30.7314 44.8168 29.6533 43.7274 29.6533 42.3905C29.6533 41.0508 30.7314 39.9613 32.0566 39.9613C33.3761 39.9613 34.4486 41.0508 34.4486 42.3905C34.4486 43.7274 33.3733 44.8168 32.0566 44.8168Z" fill="#2C1F00"/>
</svg>
