<svg width="25" height="23" viewBox="0 0 25 23" fill="none" xmlns="http://www.w3.org/2000/svg">
<path d="M24.7487 5.45625L21.78 3.16875C21.5783 3.03924 21.3589 2.93947 21.1287 2.8725C20.8995 2.7983 20.6609 2.75706 20.42 2.75H11.875L12.8762 9H20.42C20.625 9 20.8813 8.95375 21.1275 8.8775C21.3738 8.80125 21.6113 8.69625 21.7788 8.5825L24.7475 6.2925C24.9163 6.17875 25 6.0275 25 5.875C25 5.7225 24.9162 5.57125 24.7487 5.45625V5.45625ZM10.625 0.25H9.375C9.20924 0.25 9.05027 0.315848 8.93306 0.433058C8.81585 0.550268 8.75 0.70924 8.75 0.875V5.25H4.58C4.3725 5.25 4.1175 5.29625 3.87125 5.37375C3.62375 5.44875 3.3875 5.5525 3.22 5.66875L0.25125 7.95625C0.0825 8.07 0 8.2225 0 8.375C0 8.52625 0.0825 8.6775 0.25125 8.79375L3.22 11.0837C3.3875 11.1975 3.62375 11.3025 3.87125 11.3775C4.1175 11.4538 4.3725 11.5 4.58 11.5H8.75V22.125C8.75 22.2908 8.81585 22.4497 8.93306 22.5669C9.05027 22.6842 9.20924 22.75 9.375 22.75H10.625C10.7908 22.75 10.9497 22.6842 11.0669 22.5669C11.1842 22.4497 11.25 22.2908 11.25 22.125V0.875C11.25 0.70924 11.1842 0.550268 11.0669 0.433058C10.9497 0.315848 10.7908 0.25 10.625 0.25V0.25Z" fill="#F67D2F"/>
</svg>
