<svg width="30" height="31" viewBox="0 0 30 31" fill="none" xmlns="http://www.w3.org/2000/svg">
<path d="M15.9375 22.0625V12.1381L19.8009 16.0015C20.1675 16.3681 20.7609 16.3681 21.1266 16.0015C21.4931 15.635 21.4931 15.0416 21.1266 14.6759L15.8231 9.3725C15.5991 9.14843 15.2906 9.07814 15 9.12966C14.7094 9.07809 14.4009 9.14843 14.1759 9.37343L8.8725 14.6769C8.50593 15.0434 8.50593 15.6369 8.8725 16.0025C9.23907 16.3691 9.8325 16.3691 10.1981 16.0025L14.0625 12.1381V22.0625C14.0625 22.58 14.4825 23 15 23C15.5175 23 15.9375 22.58 15.9375 22.0625ZM30 15.5C30 7.21529 23.2847 0.5 15 0.5C6.71627 0.5 -4.91738e-07 7.21529 -4.91738e-07 15.5C-4.91738e-07 23.7847 6.71627 30.5 15 30.5C23.2847 30.5 30 23.7847 30 15.5ZM1.875 15.5C1.875 8.25123 7.75123 2.375 15 2.375C22.2488 2.375 28.125 8.25123 28.125 15.5C28.125 22.7488 22.2488 28.625 15 28.625C7.75123 28.625 1.875 22.7488 1.875 15.5Z" fill="#2C1F00"/>
</svg>
