<svg width="22" height="20" viewBox="0 0 22 20" fill="none" xmlns="http://www.w3.org/2000/svg">
<path d="M19.224 9.31034H3.11207C2.61594 9.31034 2.14013 9.50742 1.78931 9.85824C1.43849 10.2091 1.2414 10.6849 1.2414 11.181V19.1464L1.36209 19.2671H2.99138L3.11207 19.1464V16.3103L3.23276 16.1896H18.9826L19.1033 16.3706V19.2068L19.224 19.3275H20.8533L20.974 19.2068V11.2414C21.155 10.2155 20.3705 9.37068 19.2843 9.37068L19.224 9.31034ZM19.224 9.31034L19.224 3.45687C19.224 3.15515 18.9222 2.85343 18.6205 2.79308C18.2108 2.69397 17.8363 2.48382 17.5382 2.18574C17.2401 1.88766 17.03 1.51318 16.9309 1.10344C16.8705 0.801722 16.6292 0.5 16.2671 0.5H5.94822C5.6465 0.5 5.34478 0.801722 5.28444 1.10344C5.18532 1.51318 4.97518 1.88766 4.67709 2.18574C4.37901 2.48382 4.00453 2.69397 3.5948 2.79308C3.29308 2.85343 2.99136 3.09481 2.99136 3.45687V9.31027L19.224 9.31034ZM1 13.7154H13.793M10.293 3.27584H18.9222M14.5171 6.29309H7.57753C6.97409 6.29309 6.55168 6.7155 6.55168 7.2586V9.31031H15.6033V7.31894C15.6033 6.7155 15.1206 6.29309 14.5171 6.29309Z" stroke="#2C1F00" stroke-miterlimit="10"/>
</svg>
