<svg width="40" height="41" viewBox="0 0 40 41" fill="none" xmlns="http://www.w3.org/2000/svg">
<g clip-path="url(#clip0_568_630)">
<path d="M34.1333 5.95922C32.2777 4.09961 30.0731 2.62492 27.6459 1.61985C25.2188 0.614787 22.617 0.0991485 19.9899 0.102556C8.94328 0.102556 -0.0117188 9.05756 -0.0117188 20.1042C-0.0117188 25.6276 2.22828 30.6292 5.84828 34.2492C7.70383 36.1088 9.9085 37.5835 12.3356 38.5886C14.7628 39.5937 17.3646 40.1093 19.9916 40.1059C31.0383 40.1059 39.9933 31.1509 39.9933 20.1042C39.9933 14.5809 37.7533 9.57922 34.1333 5.95922ZM31.5633 31.6709C30.0453 33.1927 28.2416 34.3996 26.2558 35.2222C24.2699 36.0448 22.1411 36.4669 19.9916 36.4642C10.9533 36.4642 3.62661 29.1376 3.62661 20.0992C3.62392 17.9498 4.046 15.8209 4.8686 13.8351C5.69119 11.8492 6.89809 10.0455 8.41995 8.52756C9.93754 7.00568 11.741 5.79875 13.7265 4.97614C15.7121 4.15353 17.8407 3.73147 19.9899 3.73422C29.0266 3.73422 36.3533 11.0609 36.3533 20.0976C36.3561 22.2468 35.9341 24.3754 35.1115 26.361C34.2889 28.3466 33.0819 30.15 31.5599 31.6676L31.5633 31.6709Z" fill="#F9F3EB"/>
<path d="M22.5617 20.106L28.9867 13.681C29.3036 13.3356 29.4749 12.8811 29.4647 12.4124C29.4546 11.9437 29.2638 11.497 28.9322 11.1656C28.6006 10.8342 28.1538 10.6437 27.6851 10.6338C27.2164 10.624 26.762 10.7955 26.4167 11.1127L26.4184 11.111L19.9934 17.536L13.5684 11.111C13.2229 10.7941 12.7684 10.6228 12.2997 10.633C11.831 10.6432 11.3843 10.834 11.053 11.1656C10.7216 11.4972 10.5311 11.944 10.5212 12.4127C10.5113 12.8814 10.6829 13.3358 11 13.681L10.9984 13.6794L17.4234 20.1044L10.9984 26.5294C10.8176 26.6952 10.6723 26.8959 10.5711 27.1194C10.4699 27.3429 10.415 27.5846 10.4097 27.8298C10.4044 28.0751 10.4488 28.3189 10.5402 28.5466C10.6315 28.7742 10.768 28.9811 10.9415 29.1546C11.1149 29.3281 11.3216 29.4647 11.5492 29.5563C11.7768 29.6478 12.0206 29.6923 12.2659 29.6872C12.5111 29.682 12.7528 29.6273 12.9764 29.5263C13.1999 29.4252 13.4008 29.28 13.5667 29.0994L13.5684 29.0977L19.9934 22.6727L26.4184 29.0977C26.5842 29.2785 26.7849 29.4238 27.0084 29.525C27.2319 29.6261 27.4736 29.681 27.7188 29.6863C27.9641 29.6917 28.2079 29.6473 28.4356 29.5559C28.6633 29.4645 28.8701 29.328 29.0436 29.1546C29.2171 28.9812 29.3538 28.7745 29.4453 28.5469C29.5368 28.3193 29.5814 28.0755 29.5762 27.8302C29.571 27.5849 29.5163 27.3432 29.4153 27.1197C29.3143 26.8961 29.169 26.6953 28.9884 26.5294L28.9867 26.5277L22.5617 20.106Z" fill="#F9F3EB"/>
</g>
<defs>
<clipPath id="clip0_568_630">
<rect width="40" height="40" fill="white" transform="translate(0 0.105957)"/>
</clipPath>
</defs>
</svg>
