<svg width="20" height="21" viewBox="0 0 20 21" fill="none" xmlns="http://www.w3.org/2000/svg">
<path fill-rule="evenodd" clip-rule="evenodd" d="M0.871453 0.977079C0.589092 1.07798 0.37326 1.23717 0.23415 1.44718C-0.0167631 1.826 0.000308169 1.10791 0.000308169 11.2874C0.000308169 21.4818 -0.0182867 20.7185 0.233408 20.8486C0.401503 20.9355 2.09926 20.9355 2.26735 20.8486C2.45776 20.7502 2.50045 20.6147 2.50045 20.109V19.6578H10.0009H17.5013V20.109C17.5013 20.8993 17.5147 20.9079 18.7514 20.9079C19.7452 20.9079 19.8303 20.8912 19.9425 20.6742C19.9955 20.5717 20.001 19.5253 19.992 11.2114L19.9819 1.86381L19.8796 1.64559C19.6642 1.18623 19.2569 0.926763 18.7514 0.926763C18.2459 0.926763 17.8386 1.18623 17.6232 1.64559L17.5209 1.86381L17.5095 3.47523L17.4981 5.08665H13.0516C8.63128 5.08665 8.60448 5.08712 8.5035 5.16654C8.36588 5.27483 8.32158 5.46191 8.32134 5.93631L8.32111 6.33673H7.91597H7.51082L7.48442 6.10304C7.4275 5.60004 7.23761 5.21764 6.85829 4.84199C6.45416 4.44185 6.00523 4.25696 5.43031 4.25387C4.83704 4.25071 4.39209 4.43658 3.96113 4.86754C3.58888 5.23979 3.41543 5.59883 3.34101 6.15117L3.31601 6.33673H2.90946H2.50292L2.4919 4.10027L2.48092 1.86381L2.37857 1.64559C2.1102 1.0733 1.43735 0.774879 0.871453 0.977079ZM1.54337 1.88873L1.66056 2.00206L1.65998 11.035L1.65935 20.068H1.2498H0.840201V11.0368V2.00565L0.95302 1.88791C1.13491 1.69806 1.34648 1.69833 1.54337 1.88873ZM19.0444 1.88873L19.1616 2.00202V11.035V20.068H18.7545H18.3475L18.3443 11.0368L18.3412 2.00569L18.454 1.88791C18.6359 1.69806 18.8475 1.69833 19.0444 1.88873ZM5.94577 5.19713C6.16196 5.30292 6.42322 5.55297 6.52409 5.75072C6.59956 5.89862 6.6839 6.2811 6.64882 6.31618C6.63753 6.32751 6.07504 6.33673 5.39883 6.33673H4.16934L4.19215 6.14406C4.24606 5.68892 4.60464 5.27526 5.07873 5.12127C5.26964 5.05927 5.74986 5.1013 5.94577 5.19713ZM17.5013 7.56727V9.22752H10.0009H2.50045V8.1923V7.15709H5.40676H8.31306L8.32751 7.63563C8.34365 8.1709 8.38884 8.29051 8.60296 8.36517C8.68499 8.39376 9.72478 8.40716 11.8623 8.40716H15.0012V7.99698V7.5868H12.0909H9.18053V6.74691V5.90701H13.3409H17.5013V7.56727ZM17.5013 12.3722V14.6575H13.1124C10.0835 14.6575 8.68609 14.6705 8.60296 14.6995C8.38884 14.7742 8.34365 14.8938 8.32751 15.4291L8.31306 15.9076H7.91573H7.51836L7.47102 15.6048C7.41004 15.2147 7.18139 14.7448 6.92685 14.4863C6.51397 14.0671 6.09242 13.8744 5.52622 13.8462C4.8945 13.8147 4.41615 13.9974 3.96491 14.4427C3.57759 14.8249 3.43785 15.1196 3.33968 15.7611L3.31726 15.9076H2.90888H2.50045V12.9973V10.0869H10.0009H17.5013V12.3722ZM5.92917 14.7746C6.30365 14.9357 6.57425 15.3101 6.65628 15.7806L6.67843 15.9076H5.42934H4.18024V15.7908C4.18024 15.6341 4.30724 15.3088 4.43244 15.1446C4.56721 14.9679 4.86055 14.7697 5.07853 14.708C5.31929 14.6398 5.68185 14.6682 5.92917 14.7746ZM17.5013 17.1577V18.8375H10.0009H2.50045V17.7827V16.728H5.41078H8.32111L8.32134 17.1284C8.32158 17.6028 8.36588 17.7899 8.5035 17.8981C8.60397 17.9771 8.64054 17.978 11.8031 17.978H15.0012V17.5679V17.1577H12.0909H9.18053V16.3178V15.4779H13.3409H17.5013V17.1577Z" fill="#2C1F00"/>
</svg>
