<svg width="22" height="17" viewBox="0 0 22 17" fill="none" xmlns="http://www.w3.org/2000/svg">
<path d="M20.7778 7.51719V1.69901C20.7778 1.57389 20.7146 1.4539 20.602 1.36544C20.4895 1.27697 20.3369 1.22726 20.1778 1.22726H1.37777C1.21864 1.22726 1.06603 1.27697 0.953507 1.36544C0.840985 1.4539 0.777771 1.57389 0.777771 1.69901V7.51719M20.7778 7.51719H0.777771M20.7778 7.51719L19.9878 9.54884C19.8627 9.87092 19.6094 10.1529 19.2652 10.3533C18.921 10.5538 18.5041 10.662 18.0758 10.6622H16.7778M0.777771 7.51719L1.56777 9.54884C1.69284 9.87092 1.94611 10.1529 2.29031 10.3533C2.63451 10.5538 3.05146 10.662 3.47977 10.6622H4.77777M16.7778 4.37223H17.7778M8.27777 10.269C8.27777 10.269 8.27777 15.7727 4.77777 15.7727M13.2778 10.269C13.2778 10.269 13.2778 15.7727 16.7778 15.7727M10.7778 10.269V15.7727" stroke="#2C1F00" stroke-width="1.5" stroke-linecap="round" stroke-linejoin="round"/>
</svg>
