<svg width="21" height="19" viewBox="0 0 21 19" fill="none" xmlns="http://www.w3.org/2000/svg">
<path d="M2.37555 8.31982V8.81982V8.31982ZM0.504883 10.1905H0.00488281H0.504883ZM0.504883 18.1559H0.00488281V18.363L0.151326 18.5095L0.504883 18.1559ZM0.625572 18.2766L0.272015 18.6302L0.418462 18.7766H0.625572V18.2766ZM2.25487 18.2766V18.7766H2.46198L2.60842 18.6302L2.25487 18.2766ZM2.37555 18.1559L2.72911 18.5095L2.87555 18.363V18.1559H2.37555ZM2.37555 15.3198L2.022 14.9662L1.87555 15.1126V15.3198H2.37555ZM2.49624 15.1991V14.6991H2.28914L2.14269 14.8455L2.49624 15.1991ZM18.2461 15.1991L18.6621 14.9217L18.5137 14.6991H18.2461V15.1991ZM18.3668 15.3801H18.8668V15.2287L18.7828 15.1028L18.3668 15.3801ZM18.3668 18.2163H17.8668V18.4234L18.0132 18.5698L18.3668 18.2163ZM18.4875 18.337L18.1339 18.6905L18.2804 18.837H18.4875V18.337ZM20.1168 18.337V18.837H20.3239L20.4703 18.6905L20.1168 18.337ZM20.2374 18.2163L20.591 18.5698L20.7374 18.4234V18.2163H20.2374ZM20.2374 10.2508L19.7451 10.1639L19.7374 10.2071V10.2508H20.2374ZM18.5478 8.38017L18.1943 8.73372L18.3407 8.88017H18.5478V8.38017ZM17.884 1.80258L17.7664 2.28857L17.7761 2.29091L17.7859 2.29287L17.884 1.80258ZM18.4874 2.46637H17.9874V2.46637L18.4874 2.46637ZM2.25484 8.31976H1.75484V8.81976L2.25484 8.81976L2.25484 8.31976ZM2.85828 1.80258L2.95634 2.29287L2.96613 2.29091L2.97584 2.28857L2.85828 1.80258ZM5.81516 8.3198H5.31516V8.8198H5.81516V8.3198ZM14.8668 8.3198V8.8198H15.3668V8.3198H14.8668ZM18.4875 7.81982H2.37555V8.81982H18.4875V7.81982ZM2.37555 7.81982C1.74681 7.81982 1.14382 8.06959 0.699237 8.51418L1.40634 9.22128C1.66339 8.96423 2.01203 8.81982 2.37555 8.81982V7.81982ZM0.699237 8.51418C0.25465 8.95876 0.00488281 9.56175 0.00488281 10.1905H1.00488C1.00488 9.82697 1.14929 9.47833 1.40634 9.22128L0.699237 8.51418ZM0.00488281 10.1905V18.1559H1.00488V10.1905H0.00488281ZM0.151326 18.5095L0.272015 18.6302L0.979129 17.9231L0.85844 17.8024L0.151326 18.5095ZM0.625572 18.7766H2.25487V17.7766H0.625572V18.7766ZM2.60842 18.6302L2.72911 18.5095L2.022 17.8024L1.90131 17.9231L2.60842 18.6302ZM2.87555 18.1559V15.3198H1.87555V18.1559H2.87555ZM2.72911 15.6733L2.84979 15.5526L2.14269 14.8455L2.022 14.9662L2.72911 15.6733ZM2.49624 15.6991H18.2461V14.6991H2.49624V15.6991ZM17.8301 15.4764L17.9508 15.6575L18.7828 15.1028L18.6621 14.9217L17.8301 15.4764ZM17.8668 15.3801V18.2163H18.8668V15.3801H17.8668ZM18.0132 18.5698L18.1339 18.6905L18.841 17.9834L18.7203 17.8627L18.0132 18.5698ZM18.4875 18.837H20.1168V17.837H18.4875V18.837ZM20.4703 18.6905L20.591 18.5698L19.8839 17.8627L19.7632 17.9834L20.4703 18.6905ZM20.7374 18.2163V10.2508H19.7374V18.2163H20.7374ZM20.7298 10.3377C20.9721 8.96471 19.9018 7.88017 18.5478 7.88017V8.88017C19.3662 8.88017 19.8648 9.48527 19.7451 10.1639L20.7298 10.3377ZM18.9014 8.02662L18.841 7.96627L18.1339 8.67338L18.1943 8.73372L18.9014 8.02662ZM17.7859 2.29287C17.8194 2.29956 17.8808 2.32908 17.9341 2.38593C17.9892 2.44469 17.9874 2.4792 17.9874 2.46637H18.9874C18.9874 2.15181 18.8348 1.8846 18.6636 1.70199C18.4906 1.51746 18.2503 1.36595 17.9821 1.31229L17.7859 2.29287ZM17.9874 2.46637L17.9875 8.31983L18.9875 8.31982L18.9874 2.46637L17.9874 2.46637ZM18.4875 7.81982L2.25484 7.81976L2.25484 8.81976L18.4875 8.81982L18.4875 7.81982ZM2.75484 8.31976V2.46637H1.75484V8.31976H2.75484ZM2.75484 2.46637C2.75484 2.435 2.7648 2.40705 2.79697 2.37488C2.83458 2.33728 2.894 2.30534 2.95634 2.29287L2.76022 1.31229C2.3131 1.40172 1.75484 1.78613 1.75484 2.46637H2.75484ZM13.7806 4.80258H6.84102V5.80258H13.7806V4.80258ZM6.84102 4.80258C5.9817 4.80258 5.31516 5.42901 5.31516 6.26809H6.31516C6.31516 6.02098 6.49345 5.80258 6.84102 5.80258V4.80258ZM5.31516 6.26809V8.3198H6.31516V6.26809H5.31516ZM5.81516 8.8198H14.8668V7.8198H5.81516V8.8198ZM15.3668 8.3198V6.32844H14.3668V8.3198H15.3668ZM15.3668 6.32844C15.3668 5.41192 14.6218 4.80258 13.7806 4.80258V5.80258C14.1463 5.80258 14.3668 6.03806 14.3668 6.32844H15.3668ZM2.97584 2.28857C5.69195 1.63153 7.63283 1.21614 9.76646 1.16781C11.8978 1.11953 14.2485 1.43756 17.7664 2.28857L18.0016 1.3166C14.4442 0.456058 11.9984 0.116998 9.74382 0.168065C7.49156 0.21908 5.45723 0.659462 2.74072 1.3166L2.97584 2.28857Z" fill="#2C1F00"/>
</svg>
