<svg width="21" height="21" viewBox="0 0 21 21" fill="none" xmlns="http://www.w3.org/2000/svg">
<path d="M2.37078 9.02681H1.78675V10.8957H2.37078M2.37078 9.02681C2.25397 7.81982 2.7212 4.89189 5.52453 2.83611C7.59517 1.31764 9.72952 1.31763 11.3648 1.31764M2.37078 9.02681H11.3648M11.3648 1.31764V9.02681M11.3648 1.31764C11.3648 1.00616 11.5283 0.5 12.1824 0.5C12.8366 0.5 13.0001 1.00616 13.0001 1.31764V9.02681M11.3648 9.02681H13.0001M13.0001 9.02681H17.9059C18.1395 8.98787 18.6768 9.02681 18.9572 9.49403C19.2375 9.96125 19.2297 10.6231 19.1908 10.8957H18.4899M2.37078 10.8957L3.77245 16.9696H6.22536M2.37078 10.8957H18.4899M18.4899 10.8957L16.9715 16.9696H14.6354M4.82369 14.283L5.05731 15.4511M6.22536 16.9696V19.0721C5.56346 19.0721 4.35645 19.0721 4.00606 19.0721C3.77245 19.0721 2.58639 18.0148 2.25395 17.904C1.90354 17.7872 1.31953 18.0208 1.43634 18.7217C1.55314 19.4225 2.83803 20.2401 3.53886 20.4737C3.71614 20.5328 12.4161 20.4737 16.7379 20.4737C17.6566 20.4737 19.0512 19.7093 19.4244 18.8385C19.7748 18.0208 18.8987 17.5536 18.3732 17.904C18.0228 18.1376 16.9715 18.8385 16.5043 18.9553C16.1417 19.0459 15.1805 19.0721 14.6354 19.0721V16.9696M6.22536 16.9696H7.62701M14.6354 16.9696H13.2337M7.62701 16.9696V19.0721H13.2337V16.9696M7.62701 16.9696H13.2337" stroke="#2C1F00"/>
</svg>
