<svg width="14" height="21" viewBox="0 0 14 21" fill="none" xmlns="http://www.w3.org/2000/svg">
<path d="M11.9206 0.5H2.63491C2.14254 0.500596 1.67049 0.7115 1.32233 1.08644C0.974164 1.46139 0.778324 1.96975 0.777771 2.5V19.1667C0.77814 19.5202 0.9087 19.8591 1.14081 20.109C1.37292 20.359 1.68762 20.4996 2.01587 20.5H12.5397C12.8679 20.4996 13.1826 20.359 13.4147 20.109C13.6468 19.8591 13.7774 19.5202 13.7778 19.1667V2.5C13.7772 1.96975 13.5814 1.46139 13.2332 1.08644C12.8851 0.7115 12.413 0.500596 11.9206 0.5ZM12.5397 19.1667H2.01587V9.83333H12.5397V19.1667ZM12.5397 8.5H2.01587V2.5C2.01606 2.32325 2.08134 2.15381 2.1974 2.02883C2.31345 1.90385 2.47079 1.83354 2.63491 1.83333H11.9206C12.0848 1.83354 12.2421 1.90385 12.3581 2.02883C12.4742 2.15381 12.5395 2.32325 12.5397 2.5V8.5Z" fill="#2C1F00"/>
<path d="M2.94444 11.5H4.18253V15.5H2.94444V11.5ZM2.94444 4.16667H4.18253V6.83333H2.94444V4.16667Z" fill="#2C1F00"/>
</svg>
