<svg width="22" height="17" viewBox="0 0 22 17" fill="none" xmlns="http://www.w3.org/2000/svg">
<path fill-rule="evenodd" clip-rule="evenodd" d="M1.61455 0.366854C1.20845 0.507625 0.90059 0.847972 0.813861 1.25189C0.781378 1.40329 0.772015 3.50397 0.781009 8.62941L0.793575 15.7952L0.881823 15.9862C0.994629 16.2302 1.26204 16.4976 1.50609 16.6104L1.697 16.6987H11.2857H20.8743L21.0653 16.6104C21.3093 16.4976 21.5767 16.2302 21.6895 15.9862L21.7778 15.7952V8.50622V1.21719L21.6895 1.02628C21.5767 0.782226 21.3093 0.514811 21.0653 0.402006L20.8743 0.313757L11.3473 0.304641C2.39548 0.296099 1.8078 0.299836 1.61455 0.366854ZM20.8426 1.24893L20.9565 1.36276L20.9672 6.16646L20.978 10.9701H11.2857H1.59336L1.60411 6.16983C1.61471 1.43508 1.61598 1.36826 1.697 1.27825C1.74218 1.22803 1.81609 1.17177 1.86126 1.15321C1.90644 1.13465 6.17009 1.12294 11.3361 1.12725L20.7288 1.13506L20.8426 1.24893ZM3.6974 2.77782C3.53922 2.84669 3.43857 3.04774 3.47273 3.22654C3.48715 3.30201 3.61593 3.47206 3.81805 3.6826C3.99533 3.86727 4.14037 4.03153 4.14037 4.04763C4.14037 4.06377 4.08325 4.15994 4.01344 4.26141C3.66734 4.76442 3.50764 5.3268 3.50764 6.04232C3.50764 6.75784 3.66734 7.32022 4.01344 7.82323C4.08325 7.9247 4.14037 8.02087 4.14037 8.03701C4.14037 8.05311 3.99533 8.21737 3.81805 8.40204C3.61593 8.61258 3.48715 8.78263 3.47273 8.8581C3.43832 9.03805 3.53926 9.23861 3.69744 9.30473C3.91919 9.39737 4.04473 9.34234 4.40881 8.9928C4.59348 8.81552 4.75774 8.67048 4.77384 8.67048C4.78998 8.67048 4.88615 8.7276 4.98762 8.79741C5.49063 9.14351 6.05301 9.30321 6.76853 9.30321C7.48404 9.30321 8.04643 9.14351 8.54943 8.79741C8.6509 8.7276 8.74708 8.67048 8.76322 8.67048C8.77931 8.67048 8.94357 8.81552 9.12824 8.9928C9.49232 9.34234 9.61786 9.39737 9.83961 9.30473C9.99779 9.23861 10.0987 9.03805 10.0643 8.8581C10.0499 8.78263 9.92112 8.61258 9.719 8.40204C9.54173 8.21737 9.39668 8.05311 9.39668 8.03701C9.39668 8.02087 9.45381 7.9247 9.52362 7.82323C9.86971 7.32022 10.0294 6.75784 10.0294 6.04232C10.0294 5.3268 9.86971 4.76442 9.52362 4.26141C9.45381 4.15994 9.39668 4.06377 9.39668 4.04763C9.39668 4.03153 9.54173 3.86727 9.719 3.6826C9.92112 3.47206 10.0499 3.30201 10.0643 3.22654C10.0987 3.04659 9.99779 2.84603 9.83961 2.77991C9.61786 2.68727 9.49232 2.7423 9.12824 3.09184C8.94357 3.26912 8.77931 3.41416 8.76322 3.41416C8.74708 3.41416 8.6509 3.35704 8.54943 3.28723C8.04643 2.94113 7.48404 2.78143 6.76853 2.78143C6.05301 2.78143 5.49063 2.94113 4.98762 3.28723C4.88615 3.35704 4.78998 3.41416 4.77384 3.41416C4.75774 3.41416 4.59056 3.26633 4.40236 3.08564C4.21416 2.90496 4.03352 2.75712 4.00095 2.75712C3.96839 2.75712 3.91714 2.74854 3.88708 2.73807C3.85698 2.72764 3.77165 2.7455 3.6974 2.77782ZM12.8549 2.77782C12.6967 2.84669 12.5961 3.04774 12.6302 3.22654C12.6446 3.30201 12.7734 3.47206 12.9755 3.6826C13.1528 3.86727 13.2979 4.03153 13.2979 4.04763C13.2979 4.06377 13.2407 4.15994 13.1709 4.26141C12.8248 4.76442 12.6651 5.3268 12.6651 6.04232C12.6651 6.75784 12.8248 7.32022 13.1709 7.82323C13.2407 7.9247 13.2979 8.02087 13.2979 8.03701C13.2979 8.05311 13.1528 8.21737 12.9755 8.40204C12.7734 8.61258 12.6446 8.78263 12.6302 8.8581C12.5958 9.03805 12.6967 9.23861 12.8549 9.30473C13.0767 9.39737 13.2022 9.34234 13.5663 8.9928C13.751 8.81552 13.9152 8.67048 13.9313 8.67048C13.9475 8.67048 14.0436 8.7276 14.1451 8.79741C14.6481 9.14351 15.2105 9.30321 15.926 9.30321C16.6415 9.30321 17.2039 9.14351 17.7069 8.79741C17.8084 8.7276 17.9046 8.67048 17.9207 8.67048C17.9368 8.67048 18.1011 8.81552 18.2857 8.9928C18.4963 9.19492 18.6663 9.3237 18.7418 9.33811C18.9217 9.37252 19.1223 9.27159 19.1884 9.11341C19.2811 8.89165 19.226 8.76612 18.8765 8.40204C18.6992 8.21737 18.5542 8.05311 18.5542 8.03701C18.5542 8.02087 18.6113 7.9247 18.6811 7.82323C19.0272 7.32022 19.1869 6.75784 19.1869 6.04232C19.1869 5.3268 19.0272 4.76442 18.6811 4.26141C18.6113 4.15994 18.5542 4.06377 18.5542 4.04763C18.5542 4.03153 18.6992 3.86727 18.8765 3.6826C19.0786 3.47206 19.2074 3.30201 19.2218 3.22654C19.2562 3.04659 19.1553 2.84603 18.9971 2.77991C18.7753 2.68727 18.6498 2.7423 18.2857 3.09184C18.1011 3.26912 17.9368 3.41416 17.9207 3.41416C17.9046 3.41416 17.8084 3.35704 17.7069 3.28723C17.2039 2.94113 16.6415 2.78143 15.926 2.78143C15.2105 2.78143 14.6481 2.94113 14.1451 3.28723C14.0436 3.35704 13.9475 3.41416 13.9313 3.41416C13.9152 3.41416 13.7481 3.26633 13.5599 3.08564C13.3717 2.90496 13.191 2.75712 13.1584 2.75712C13.1259 2.75712 13.0746 2.74854 13.0446 2.73807C13.0145 2.72764 12.9291 2.7455 12.8549 2.77782ZM7.27654 3.63961C7.52847 3.69299 8.16474 3.96562 8.16474 4.0202C8.16474 4.03194 8.02889 4.18372 7.86283 4.35755C7.67766 4.55133 7.55209 4.71982 7.53804 4.79329C7.50375 4.9727 7.60486 5.17326 7.76287 5.23929C7.982 5.33083 8.10963 5.27633 8.45975 4.94186C8.63706 4.77247 8.78835 4.64122 8.79595 4.65026C8.86728 4.73493 9.0388 5.08793 9.11321 5.30315C9.24528 5.68522 9.24528 6.39942 9.11321 6.78149C9.0388 6.99671 8.86728 7.34971 8.79595 7.43438C8.78835 7.44342 8.63706 7.31217 8.45975 7.14278C8.10963 6.8083 7.982 6.75381 7.76287 6.84535C7.60486 6.91138 7.50375 7.11194 7.53804 7.29135C7.55209 7.36482 7.67766 7.53331 7.86283 7.72709C8.02889 7.90092 8.16474 8.0527 8.16474 8.06444C8.16474 8.12095 7.52334 8.39288 7.25576 8.44984C6.7174 8.56445 6.05416 8.46142 5.57764 8.18911C5.47601 8.13105 5.38546 8.07734 5.37647 8.06974C5.36743 8.06214 5.49867 7.91086 5.66807 7.73354C5.85783 7.53491 5.98488 7.36515 5.99901 7.29135C6.0333 7.11194 5.9322 6.91138 5.77418 6.84535C5.55506 6.75381 5.42743 6.8083 5.07731 7.14278C4.89999 7.31217 4.74871 7.44342 4.74111 7.43438C4.66978 7.34971 4.49825 6.99671 4.42384 6.78149C4.34902 6.56504 4.33161 6.42529 4.33161 6.04232C4.33161 5.65935 4.34902 5.5196 4.42384 5.30315C4.49825 5.08793 4.66978 4.73493 4.74111 4.65026C4.74871 4.64122 4.89999 4.77247 5.07731 4.94186C5.27594 5.13162 5.4457 5.25868 5.51949 5.2728C5.69891 5.30709 5.89947 5.20599 5.9655 5.04797C6.05703 4.82885 6.00254 4.70122 5.66807 4.3511C5.49867 4.17378 5.36743 4.02299 5.37647 4.01601C5.83537 3.66092 6.63207 3.50307 7.27654 3.63961ZM16.434 3.63961C16.686 3.69299 17.3222 3.96562 17.3222 4.0202C17.3222 4.03194 17.1864 4.18372 17.0203 4.35755C16.6922 4.70097 16.6379 4.82975 16.729 5.04797C16.7951 5.20599 16.9956 5.30709 17.175 5.2728C17.2485 5.25876 17.417 5.13318 17.6108 4.94802C17.7846 4.78195 17.9364 4.64611 17.9481 4.64611C17.9599 4.64611 18.0368 4.78249 18.1192 4.94913C18.472 5.66317 18.472 6.42147 18.1192 7.13551C18.0368 7.30215 17.9599 7.43853 17.9481 7.43853C17.9364 7.43853 17.7846 7.30269 17.6108 7.13662C17.417 6.95146 17.2485 6.82588 17.175 6.81184C16.9956 6.77755 16.7951 6.87865 16.729 7.03667C16.6379 7.25489 16.6922 7.38367 17.0203 7.72709C17.1864 7.90092 17.3222 8.0527 17.3222 8.06444C17.3222 8.12095 16.6808 8.39288 16.4132 8.44984C15.8749 8.56445 15.2116 8.46142 14.7351 8.18911C14.6335 8.13105 14.5429 8.07734 14.534 8.06974C14.5249 8.06214 14.6562 7.91086 14.8256 7.73354C15.0153 7.53491 15.1424 7.36515 15.1565 7.29135C15.1908 7.11194 15.0897 6.91138 14.9317 6.84535C14.7125 6.75381 14.5849 6.8083 14.2348 7.14278C14.0575 7.31217 13.9062 7.44342 13.8986 7.43438C13.8273 7.34971 13.6557 6.99671 13.5813 6.78149C13.5065 6.56504 13.4891 6.42529 13.4891 6.04232C13.4891 5.65935 13.5065 5.5196 13.5813 5.30315C13.6557 5.08793 13.8273 4.73493 13.8986 4.65026C13.9062 4.64122 14.0575 4.77247 14.2348 4.94186C14.5849 5.27633 14.7125 5.33083 14.9317 5.23929C15.0897 5.17326 15.1908 4.9727 15.1565 4.79329C15.1424 4.71949 15.0153 4.54973 14.8256 4.3511C14.6562 4.17378 14.5249 4.02299 14.534 4.01601C14.9929 3.66092 15.7896 3.50307 16.434 3.63961ZM6.6202 5.67191C6.49093 5.72415 6.35788 5.91448 6.35788 6.04721C6.35788 6.21159 6.54661 6.40887 6.7321 6.43831C6.85714 6.45819 6.90215 6.4425 7.01861 6.33844C7.13396 6.23537 7.1568 6.1865 7.1568 6.04232C7.1568 5.89941 7.1338 5.84915 7.02358 5.75068C6.88868 5.63011 6.77744 5.60839 6.6202 5.67191ZM15.7777 5.67191C15.6484 5.72415 15.5154 5.91448 15.5154 6.04721C15.5154 6.21159 15.7041 6.40887 15.8896 6.43831C16.0146 6.45819 16.0596 6.4425 16.1761 6.33844C16.2915 6.23537 16.3143 6.1865 16.3143 6.04232C16.3143 5.89941 16.2913 5.84915 16.1811 5.75068C16.0462 5.63011 15.9349 5.60839 15.7777 5.67191ZM20.9679 13.7206L20.9565 15.6497L20.8426 15.7635L20.7288 15.8774H11.2857H1.84258L1.72875 15.7635L1.61487 15.6497L1.60342 13.7206L1.592 11.7914H11.2857H20.9793L20.9679 13.7206ZM4.20164 12.684C3.3357 12.994 3.08623 14.0635 3.72972 14.707C3.98178 14.9591 4.21839 15.0544 4.59208 15.0544C4.96577 15.0544 5.20239 14.9591 5.45445 14.707C5.7065 14.455 5.80182 14.2184 5.80182 13.8447C5.80182 13.471 5.7065 13.2344 5.45445 12.9823C5.12798 12.6558 4.6189 12.5346 4.20164 12.684ZM10.8952 12.684C10.0293 12.994 9.77982 14.0635 10.4233 14.707C10.6754 14.9591 10.912 15.0544 11.2857 15.0544C11.6594 15.0544 11.896 14.9591 12.148 14.707C12.4001 14.455 12.4954 14.2184 12.4954 13.8447C12.4954 13.471 12.4001 13.2344 12.148 12.9823C11.8216 12.6558 11.3125 12.5346 10.8952 12.684ZM17.5888 12.684C16.7229 12.994 16.4734 14.0635 17.1169 14.707C17.369 14.9591 17.6056 15.0544 17.9793 15.0544C18.353 15.0544 18.5896 14.9591 18.8416 14.707C19.0937 14.455 19.189 14.2184 19.189 13.8447C19.189 13.471 19.0937 13.2344 18.8416 12.9823C18.5152 12.6558 18.0061 12.5346 17.5888 12.684ZM4.87859 13.5787C5.02437 13.7244 5.01973 13.9695 4.86833 14.1209C4.62038 14.3689 4.20381 14.1978 4.20381 13.8479C4.20381 13.4815 4.61652 13.3168 4.87859 13.5787ZM6.90765 13.4743C6.77838 13.5265 6.64533 13.7168 6.64533 13.8495C6.64533 13.9208 6.69219 14.019 6.76508 14.1007L6.88486 14.2348L7.91202 14.247L8.93922 14.2593L9.07461 14.1383C9.18713 14.0378 9.21004 13.9881 9.21004 13.8447C9.21004 13.7018 9.18705 13.6515 9.07683 13.553L8.94366 13.434L7.96902 13.4366C7.43296 13.438 6.95537 13.455 6.90765 13.4743ZM11.5722 13.5787C11.718 13.7244 11.7133 13.9695 11.5619 14.1209C11.314 14.3689 10.8974 14.1978 10.8974 13.8479C10.8974 13.4815 11.3101 13.3168 11.5722 13.5787ZM13.6012 13.4743C13.472 13.5265 13.3389 13.7168 13.3389 13.8495C13.3389 13.9208 13.3858 14.019 13.4587 14.1007L13.5785 14.2348L14.6056 14.247L15.6328 14.2593L15.7682 14.1383C15.8807 14.0378 15.9036 13.9881 15.9036 13.8447C15.9036 13.7018 15.8806 13.6515 15.7704 13.553L15.6372 13.434L14.6626 13.4366C14.1265 13.438 13.649 13.455 13.6012 13.4743ZM18.2658 13.5787C18.4116 13.7244 18.4069 13.9695 18.2555 14.1209C18.0076 14.3689 17.591 14.1978 17.591 13.8479C17.591 13.4815 18.0037 13.3168 18.2658 13.5787Z" fill="#2C1F00"/>
</svg>
