<svg width="23" height="25" viewBox="0 0 23 25" fill="none" xmlns="http://www.w3.org/2000/svg">
<path d="M19.8882 11.8408H22.125C22.125 5.09079 17.7934 0 12.0482 0V2.63158C16.5911 2.63158 19.8882 6.50395 19.8882 11.8408Z" fill="#F67D2F"/>
<path d="M12.0594 7.89474C14.4114 7.89474 15.4146 9.075 15.4146 11.8421H17.6514C17.6514 7.59868 15.6662 5.26316 12.0594 5.26316V7.89474ZM15.8865 15.0566C15.6716 14.8268 15.3892 14.7042 15.099 14.7148C14.8087 14.7253 14.5333 14.8682 14.3308 15.1132L11.6545 18.3513C11.0103 18.2066 9.71518 17.7316 8.38205 16.1671C7.04891 14.5974 6.64516 13.0697 6.52549 12.3171L9.27565 9.1671C9.48413 8.92912 9.60573 8.60503 9.61471 8.26343C9.62368 7.92183 9.51933 7.58953 9.32374 7.33684L5.19124 1.99079C4.99556 1.73731 4.72361 1.58356 4.43313 1.56218C4.14265 1.54081 3.85653 1.6535 3.63554 1.87632L1.2086 4.325C1.01524 4.55331 0.89983 4.85717 0.884263 5.17895C0.867487 5.50789 0.547623 13.3 5.68334 19.3447C10.1637 24.6145 15.7758 25 17.3215 25C17.5474 25 17.6861 24.9921 17.723 24.9895C17.9964 24.9715 18.2546 24.8351 18.4477 24.6066L20.5279 21.75C20.7174 21.4902 20.8134 21.1537 20.7955 20.8119C20.7775 20.4702 20.647 20.1501 20.4317 19.9197L15.8865 15.0566Z" fill="#F67D2F"/>
</svg>
