<svg width="30" height="24" viewBox="0 0 30 24" fill="none" xmlns="http://www.w3.org/2000/svg">
<path d="M2.66334 21.2458C0.930403 19.386 0 17.3002 0 13.9191C0 7.96929 4.13381 2.6366 10.1453 0L11.6477 2.34251C6.03668 5.40919 4.93971 9.38874 4.50227 11.8978C5.40575 11.4253 6.58853 11.2604 7.74774 11.3692C10.7829 11.653 13.1754 14.1707 13.1754 17.3002C13.1754 18.8782 12.555 20.3916 11.4506 21.5074C10.3463 22.6232 8.84851 23.25 7.28675 23.25C6.42307 23.2424 5.56952 23.0612 4.77578 22.7172C3.98203 22.3731 3.26396 21.8729 2.66334 21.2458ZM19.488 21.2458C17.755 19.386 16.8246 17.3002 16.8246 13.9191C16.8246 7.96929 20.9584 2.6366 26.9699 0L28.4723 2.34251C22.8613 5.40919 21.7643 9.38874 21.3269 11.8978C22.2304 11.4253 23.4132 11.2604 24.5724 11.3692C27.6075 11.653 30 14.1707 30 17.3002C30 18.8782 29.3796 20.3916 28.2753 21.5074C27.1709 22.6232 25.6731 23.25 24.1114 23.25C23.2477 23.2424 22.3941 23.0612 21.6004 22.7172C20.8067 22.3731 20.0886 21.8729 19.488 21.2458Z" fill="#FAB608"/>
</svg>
