<svg width="18" height="21" viewBox="0 0 18 21" fill="none" xmlns="http://www.w3.org/2000/svg">
<path fill-rule="evenodd" clip-rule="evenodd" d="M1.89888 0.577283C1.45021 0.682999 1.08827 0.868638 0.757564 1.16265C0.435333 1.44908 0.249581 1.72016 0.101371 2.12016L0 2.39373V11.2527V20.1116L0.0895955 20.2196C0.385452 20.576 0.897171 20.5957 1.17009 20.2611L1.26007 20.1508L1.2818 11.3309L1.30352 2.51098L1.40242 2.33042C1.54198 2.07568 1.82172 1.84104 2.09598 1.74876C2.32083 1.67306 2.43615 1.67072 5.90304 1.67072C10.0371 1.67072 9.7941 1.65114 10.19 2.01624C10.3242 2.14005 10.4562 2.30623 10.4897 2.39373C10.5295 2.49738 10.5561 2.80812 10.5688 3.31603L10.5879 4.08195L10.2473 4.13116C9.11579 4.29456 7.90087 4.88216 7.08838 5.65899C6.29979 6.41296 5.79685 7.32056 5.59181 8.35951L5.51824 8.73235L5.27927 8.90638C5.02395 9.09234 4.78467 9.40909 4.70911 9.66125C4.62963 9.92654 4.67825 10.4132 4.80961 10.6672C5.02534 11.0845 5.47262 11.3899 5.99507 11.4768C6.35211 11.5362 16.067 11.5362 16.4272 11.4769C17.6753 11.2712 18.2093 9.93385 17.3761 9.10031C17.2688 8.99295 17.1175 8.86984 17.0398 8.82666C16.908 8.75342 16.8951 8.72645 16.8463 8.42259C16.725 7.66807 16.3519 6.8454 15.8352 6.19332C15.5117 5.78503 14.8459 5.19833 14.4106 4.938C13.7607 4.54941 13.02 4.27455 12.2779 4.1466L11.894 4.08039L11.8743 3.23708C11.856 2.44864 11.847 2.37337 11.7371 2.08108C11.4488 1.31448 10.8045 0.772966 9.94605 0.575446C9.62434 0.501464 9.45719 0.498337 5.91321 0.500409C2.4166 0.502441 2.19878 0.506623 1.89888 0.577283ZM12.2729 5.34328C12.6961 5.43767 13.3134 5.6899 13.7141 5.93221C14.5857 6.45923 15.2626 7.36933 15.5079 8.34396L15.5694 8.58822H11.2226H6.87582L6.90506 8.42376C6.96142 8.10696 7.20722 7.5214 7.41339 7.21281C8.10378 6.1796 9.1672 5.50368 10.446 5.28529C10.9034 5.20716 11.7886 5.23526 12.2729 5.34328ZM16.3207 9.80214C16.5336 9.90461 16.5077 10.2202 16.2794 10.305C16.1969 10.3357 14.7264 10.3451 11.1605 10.3377C6.31018 10.3277 6.15458 10.3251 6.06594 10.2529C5.94237 10.1523 5.94419 9.94545 6.06959 9.84036C6.16414 9.76111 6.19264 9.76068 11.1996 9.76068C14.6655 9.76068 16.2614 9.77361 16.3207 9.80214ZM6.47416 12.4854C6.30796 12.5217 6.11217 12.6915 6.0397 12.8621C5.97952 13.0038 5.96939 13.1467 5.98152 13.6807C5.99468 14.2613 6.00541 14.3388 6.0858 14.4356C6.39052 14.8023 6.91432 14.8114 7.17937 14.4545C7.27283 14.3286 7.278 14.2847 7.278 13.6136C7.278 12.7866 7.24711 12.6921 6.92883 12.5453C6.7423 12.4592 6.64966 12.447 6.47416 12.4854ZM9.51571 12.4854C9.34951 12.5217 9.15373 12.6915 9.08125 12.8621C9.02107 13.0038 9.01095 13.1467 9.02307 13.6807C9.03623 14.2613 9.04697 14.3388 9.12735 14.4356C9.43207 14.8023 9.95587 14.8114 10.2209 14.4545C10.3144 14.3286 10.3196 14.2847 10.3196 13.6136C10.3196 12.7866 10.2887 12.6921 9.97038 12.5453C9.78385 12.4592 9.69121 12.447 9.51571 12.4854ZM12.5356 12.4995C12.3941 12.5525 12.2386 12.6847 12.1621 12.8169C12.0682 12.9791 12.0757 14.2147 12.1716 14.3965C12.3977 14.8251 13.0849 14.8243 13.3159 14.3951C13.4036 14.2322 13.4092 14.172 13.3965 13.5368C13.3817 12.7966 13.3656 12.7446 13.0977 12.5683C12.965 12.4809 12.6785 12.4458 12.5356 12.4995ZM15.5771 12.4995C15.4356 12.5525 15.2801 12.6847 15.2036 12.8169C15.1098 12.9791 15.1172 14.2147 15.2131 14.3965C15.4393 14.8251 16.1265 14.8243 16.3575 14.3951C16.4452 14.2322 16.4508 14.172 16.4381 13.5368C16.4233 12.7966 16.4072 12.7446 16.1393 12.5683C16.0065 12.4809 15.7201 12.4458 15.5771 12.4995ZM6.28654 15.7391C6.19968 15.7881 6.10757 15.8912 6.05482 15.9985C5.97617 16.1584 5.96874 16.2428 5.98173 16.8279C5.99499 17.4243 6.0045 17.4914 6.09466 17.6218C6.34424 17.9828 6.942 17.9746 7.19132 17.6067C7.26892 17.4923 7.2777 17.4089 7.27783 16.7837C7.278 16.0369 7.26127 15.9655 7.04254 15.7818C6.88142 15.6464 6.48998 15.6243 6.28654 15.7391ZM9.32809 15.7391C9.24124 15.7881 9.14912 15.8912 9.09637 15.9985C9.01772 16.1584 9.01029 16.2428 9.02329 16.8279C9.03654 17.4243 9.04605 17.4914 9.13621 17.6218C9.3858 17.9828 9.98355 17.9746 10.2329 17.6067C10.3105 17.4923 10.3192 17.4089 10.3194 16.7837C10.3196 16.0369 10.3028 15.9655 10.0841 15.7818C9.92298 15.6464 9.53153 15.6243 9.32809 15.7391ZM12.4008 15.7508C12.1354 15.9102 12.1012 16.0273 12.1012 16.7759C12.1012 17.5266 12.1349 17.6406 12.4052 17.8045C12.5301 17.8802 12.5983 17.8937 12.7872 17.8801C13.0514 17.861 13.2068 17.7731 13.3241 17.5764C13.3934 17.4602 13.4046 17.3491 13.4045 16.7765C13.4044 16.2214 13.3919 16.089 13.3284 15.9755C13.2194 15.7802 13.0023 15.662 12.7528 15.662C12.6126 15.662 12.502 15.6899 12.4008 15.7508ZM15.4423 15.7508C15.177 15.9102 15.1427 16.0273 15.1427 16.7759C15.1427 17.5266 15.1764 17.6406 15.4467 17.8045C15.5717 17.8802 15.6399 17.8937 15.8287 17.8801C16.093 17.861 16.2484 17.7731 16.3657 17.5764C16.4349 17.4602 16.4461 17.3491 16.446 16.7765C16.446 16.2214 16.4334 16.089 16.37 15.9755C16.261 15.7802 16.0438 15.662 15.7943 15.662C15.6542 15.662 15.5435 15.6899 15.4423 15.7508Z" fill="#2C1F00"/>
</svg>
