<svg width="28" height="17" viewBox="0 0 28 17" fill="none" xmlns="http://www.w3.org/2000/svg">
<path d="M7.25491 9.75V10.25H7.75491H20.2549H20.7549V9.75V7.25C20.7549 6.14724 21.6521 5.25 22.7549 5.25H24.0049H24.5049V4.75C24.5049 2.40355 22.6014 0.5 20.2549 0.5H7.75491C5.40846 0.5 3.50491 2.40355 3.50491 4.75V5.25H4.00491H5.25491C6.35768 5.25 7.25491 6.14724 7.25491 7.25V9.75ZM24.0049 5.5H22.7549C21.7874 5.5 21.0049 6.28245 21.0049 7.25V10.5H7.00491V7.25C7.00491 6.28245 6.22246 5.5 5.25491 5.5H4.00491C2.34986 5.5 1.00491 6.84495 1.00491 8.5C1.00491 9.50493 1.50568 10.3818 2.25491 10.9228V15.375C2.25491 15.9949 2.76002 16.5 3.37991 16.5H5.87991C6.49981 16.5 7.00491 15.9949 7.00491 15.375V15.25H21.0049V15.375C21.0049 15.9949 21.51 16.5 22.1299 16.5H24.6299C25.2498 16.5 25.7549 15.9949 25.7549 15.375V10.9228C26.5041 10.3818 27.0049 9.50493 27.0049 8.5C27.0049 6.84495 25.66 5.5 24.0049 5.5Z" stroke="#2C1F00"/>
</svg>
