<svg width="21" height="21" viewBox="0 0 21 21" fill="none" xmlns="http://www.w3.org/2000/svg">
<path fill-rule="evenodd" clip-rule="evenodd" d="M13.2888 3.41929L10.7785 5.92843L9.26225 4.41544C7.89029 3.04646 7.73392 2.90246 7.61922 2.90246C7.28393 2.90246 7.08986 3.19822 7.23983 3.48062C7.27065 3.53863 7.85967 4.14863 8.54877 4.83617L9.80166 6.08625L6.21719 6.10582C2.68205 6.12508 2.62978 6.12648 2.4179 6.20821C1.62054 6.51565 1.05653 7.13545 0.854208 7.92655C0.779555 8.21848 0.777211 8.3774 0.777836 13.0753C0.778618 18.4593 0.767523 18.2196 1.04027 18.7628C1.2429 19.1664 1.70172 19.6253 2.10538 19.8279C2.661 20.1069 2.09065 20.0896 10.7778 20.0896C19.4649 20.0896 18.8945 20.1069 19.4502 19.8279C20.0585 19.5225 20.583 18.8484 20.7197 18.1963C20.7683 17.9646 20.7771 17.1841 20.7777 13.0753C20.7783 8.3774 20.776 8.21848 20.7013 7.92655C20.499 7.13545 19.935 6.51565 19.1376 6.20821C18.9258 6.12648 18.8735 6.12508 15.3384 6.10582L11.7541 6.08625L14.003 3.84002C15.2399 2.60459 16.2771 1.54633 16.308 1.48832C16.4571 1.20767 16.2819 0.910156 15.9673 0.910156H15.799L13.2888 3.41929ZM18.7618 6.9461C19.4006 7.11248 19.8728 7.6488 19.958 8.3045C20.0088 8.69554 20.0071 17.5301 19.9562 17.8826C19.8498 18.6186 19.3033 19.1658 18.5712 19.2694C18.1983 19.3222 3.35721 19.3222 2.98434 19.2694C2.61252 19.2168 2.28215 19.0482 2.03139 18.7831C1.78458 18.5221 1.6518 18.2453 1.59937 17.8826C1.54843 17.5301 1.54671 8.69554 1.59749 8.3045C1.68152 7.65775 2.15241 7.11611 2.77667 6.9481C3.09872 6.86145 18.4294 6.8595 18.7618 6.9461ZM11.8184 8.13957C13.7704 8.25563 14.5019 8.61054 14.8346 9.60294C15.0784 10.3301 15.163 11.2205 15.1632 13.0593C15.1633 15.549 14.992 16.5764 14.4688 17.2214C14.1508 17.6135 13.5525 17.8557 12.5943 17.9803C11.7297 18.0927 8.51365 18.1355 6.6342 18.0596C3.47812 17.9321 2.97293 17.4473 2.80409 14.384C2.75643 13.5192 2.77964 11.7287 2.84683 11.0865C3.04821 9.16198 3.46737 8.57999 4.85945 8.29216C5.18701 8.22446 5.87592 8.15035 6.42204 8.1241C7.09146 8.09195 11.2162 8.10375 11.8184 8.13957ZM17.868 10.4985C17.8466 10.5066 17.781 10.5239 17.7222 10.5368C17.5717 10.57 17.3412 10.7842 17.2573 10.969C16.9679 11.6061 17.6019 12.277 18.2569 12.0269C18.4741 11.9439 18.69 11.708 18.7492 11.4892C18.84 11.1533 18.6652 10.7558 18.3577 10.5989C18.2101 10.5237 17.9452 10.4693 17.868 10.4985ZM17.7882 14.1211C17.4569 14.1913 17.1861 14.5395 17.1861 14.8954C17.1861 15.3741 17.5679 15.7096 18.0657 15.6683C18.5334 15.6296 18.8705 15.1587 18.7503 14.7122C18.6318 14.2722 18.2325 14.0268 17.7882 14.1211Z" fill="#2C1F00"/>
</svg>
