<svg width="21" height="15" viewBox="0 0 21 15" fill="none" xmlns="http://www.w3.org/2000/svg">
<path d="M13.5817 7.0537C13.5817 5.6637 14.2222 4.8612 15.3116 4.8612C16.2067 4.8612 16.8066 5.4487 16.8696 6.2462H18.375V6.1087C18.3054 4.62495 17.031 3.6087 15.3011 3.6087C13.1959 3.6087 11.9962 4.9212 11.9962 7.04745V7.9812C11.9962 10.1062 13.1841 11.3937 15.3011 11.3937C17.0257 11.3937 18.3002 10.4037 18.375 8.96995V8.82745H16.8696C16.8066 9.5962 16.2172 10.14 15.3116 10.14C14.2104 10.14 13.5817 9.36495 13.5817 7.9812V7.0537ZM5.84981 11.25L7.18856 6.01995H7.24762L8.58637 11.25H9.90675L11.8125 3.7512H10.2611L9.18488 9.19495H9.11137L7.83562 3.7512H6.60188L5.32613 9.19495H5.25656L4.17112 3.7512H2.625L4.53075 11.25H5.84981Z" fill="#2C1F00"/>
<path d="M18.375 1.25C18.7231 1.25 19.0569 1.3817 19.3031 1.61612C19.5492 1.85054 19.6875 2.16848 19.6875 2.5V12.5C19.6875 12.8315 19.5492 13.1495 19.3031 13.3839C19.0569 13.6183 18.7231 13.75 18.375 13.75H2.625C2.2769 13.75 1.94306 13.6183 1.69692 13.3839C1.45078 13.1495 1.3125 12.8315 1.3125 12.5V2.5C1.3125 2.16848 1.45078 1.85054 1.69692 1.61612C1.94306 1.3817 2.2769 1.25 2.625 1.25H18.375ZM2.625 0C1.92881 0 1.26113 0.263392 0.768845 0.732233C0.276562 1.20107 0 1.83696 0 2.5V12.5C0 13.163 0.276562 13.7989 0.768845 14.2678C1.26113 14.7366 1.92881 15 2.625 15H18.375C19.0712 15 19.7389 14.7366 20.2312 14.2678C20.7234 13.7989 21 13.163 21 12.5V2.5C21 1.83696 20.7234 1.20107 20.2312 0.732233C19.7389 0.263392 19.0712 0 18.375 0H2.625Z" fill="#2C1F00"/>
</svg>
