<svg width="21" height="15" viewBox="0 0 21 15" fill="none" xmlns="http://www.w3.org/2000/svg">
<path d="M20.6188 4.34C15.0822 -0.780938 6.47125 -0.779063 0.936868 4.34C0.728743 4.5325 0.72468 4.85844 0.925931 5.05813L1.99593 6.11969C2.18781 6.31032 2.49656 6.31438 2.69593 6.13157C7.25593 1.95406 14.2991 1.95313 18.86 6.13157C19.0594 6.31438 19.3681 6.31 19.56 6.11969L20.63 5.05813C20.8309 4.85844 20.8269 4.5325 20.6188 4.34ZM10.7778 10.5C9.67312 10.5 8.77781 11.3953 8.77781 12.5C8.77781 13.6047 9.67312 14.5 10.7778 14.5C11.8825 14.5 12.7778 13.6047 12.7778 12.5C12.7778 11.3953 11.8825 10.5 10.7778 10.5ZM17.1113 7.88782C13.5094 4.7025 8.04218 4.70594 4.44437 7.88782C4.22874 8.07844 4.22187 8.40938 4.42656 8.61125L5.50281 9.67344C5.69031 9.85844 5.99218 9.87094 6.19187 9.69844C8.81531 7.43063 12.7462 7.43563 15.3634 9.69844C15.5631 9.87094 15.865 9.85876 16.0525 9.67344L17.1288 8.61125C17.3338 8.40938 17.3266 8.07813 17.1113 7.88782Z" fill="#2C1F00"/>
</svg>
